<svg width="28" height="28" viewBox="0 0 28 28" fill="none" xmlns="http://www.w3.org/2000/svg">
<g clip-path="url(#clip0)">
<path d="M8.75001 5.83451H2.91668C2.76197 5.83451 2.61359 5.77305 2.5042 5.66366C2.3948 5.55426 2.33334 5.40589 2.33334 5.25118C2.33334 5.09647 2.3948 4.9481 2.5042 4.8387C2.61359 4.7293 2.76197 4.66785 2.91668 4.66785H8.75001C8.90472 4.66785 9.05309 4.7293 9.16249 4.8387C9.27189 4.9481 9.33334 5.09647 9.33334 5.25118C9.33334 5.40589 9.27189 5.55426 9.16249 5.66366C9.05309 5.77305 8.90472 5.83451 8.75001 5.83451Z" fill="#41737E"/>
<path d="M9.33333 10.5012H2.33333C2.17862 10.5012 2.03025 10.4397 1.92085 10.3303C1.81146 10.2209 1.75 10.0725 1.75 9.91784C1.75 9.76313 1.81146 9.61475 1.92085 9.50536C2.03025 9.39596 2.17862 9.3345 2.33333 9.3345H9.33333C9.48804 9.3345 9.63642 9.39596 9.74581 9.50536C9.85521 9.61475 9.91667 9.76313 9.91667 9.91784C9.91667 10.0725 9.85521 10.2209 9.74581 10.3303C9.63642 10.4397 9.48804 10.5012 9.33333 10.5012Z" fill="#41737E"/>
<path d="M9.91667 15.1678H1.75001C1.5953 15.1678 1.44692 15.1064 1.33753 14.997C1.22813 14.8876 1.16667 14.7392 1.16667 14.5845C1.16667 14.4298 1.22813 14.2814 1.33753 14.172C1.44692 14.0626 1.5953 14.0012 1.75001 14.0012H9.91667C10.0714 14.0012 10.2198 14.0626 10.3292 14.172C10.4385 14.2814 10.5 14.4298 10.5 14.5845C10.5 14.7392 10.4385 14.8876 10.3292 14.997C10.2198 15.1064 10.0714 15.1678 9.91667 15.1678Z" fill="#41737E"/>
<path d="M11.0821 28.001H0.583272C0.50261 28.0005 0.422928 27.9833 0.349199 27.9506C0.27547 27.9179 0.209279 27.8703 0.154758 27.8108C0.100237 27.7514 0.0585571 27.6813 0.0323208 27.6051C0.00608446 27.5288 -0.00414483 27.4479 0.00227159 27.3675L2.3356 0.534174C2.34816 0.388719 2.4148 0.25326 2.52237 0.154549C2.62994 0.0558374 2.77061 0.00105017 2.9166 0.00100708H8.74994C8.89593 0.00105017 9.03661 0.0558374 9.14417 0.154549C9.25174 0.25326 9.31838 0.388719 9.33094 0.534174L10.8628 18.1485L15.3626 14.1492C15.4466 14.0746 15.5504 14.0258 15.6614 14.0088C15.7725 13.9917 15.8861 14.0071 15.9886 14.0531C16.0911 14.099 16.1781 14.1736 16.2393 14.2678C16.3004 14.3621 16.3331 14.472 16.3333 14.5843V18.0365L21.2193 14.1282C21.3048 14.0586 21.4084 14.0149 21.5179 14.0021C21.6275 13.9892 21.7384 14.0078 21.8377 14.0556C21.937 14.1035 22.0207 14.1786 22.079 14.2722C22.1372 14.3658 22.1676 14.4741 22.1666 14.5843V18.0365L27.0526 14.1282C27.1382 14.0586 27.2418 14.0149 27.3513 14.0021C27.4608 13.9892 27.5717 14.0078 27.671 14.0556C27.7704 14.1035 27.854 14.1786 27.9123 14.2722C27.9705 14.3658 28.0009 14.4741 27.9999 14.5843V27.4177C27.9999 27.5724 27.9385 27.7208 27.8291 27.8302C27.7197 27.9395 27.5713 28.001 27.4166 28.001H11.0821ZM11.6176 26.8343H26.8333V15.7988L21.9473 19.7072C21.8617 19.7767 21.7581 19.8204 21.6486 19.8333C21.5391 19.8461 21.4282 19.8275 21.3288 19.7797C21.2295 19.7319 21.1458 19.6568 21.0876 19.5631C21.0293 19.4695 20.9989 19.3613 20.9999 19.251V15.7988L16.1139 19.7072C16.0284 19.7767 15.9248 19.8204 15.8153 19.8333C15.7058 19.8461 15.5949 19.8275 15.4955 19.7797C15.3962 19.7319 15.3125 19.6568 15.2543 19.5631C15.196 19.4695 15.1656 19.3613 15.1666 19.251V15.8828L10.9888 19.5963L11.6176 26.8343ZM1.2191 26.8343H10.4463L9.83844 19.8343H1.8281L1.2191 26.8343ZM1.9296 18.6677H9.73577L8.21444 1.16767H3.45094L1.9296 18.6677Z" fill="#41737E"/>
</g>
<defs>
<clipPath id="clip0">
<rect width="28" height="28" fill="white"/>
</clipPath>
</defs>
</svg>
