<svg width="28" height="28" viewBox="0 0 28 28" fill="none" xmlns="http://www.w3.org/2000/svg">
<path fill-rule="evenodd" clip-rule="evenodd" d="M9.18749 8.575C8.36596 8.575 7.69999 9.24098 7.69999 10.0625C7.69999 10.884 8.36596 11.55 9.18749 11.55C10.009 11.55 10.675 10.884 10.675 10.0625C10.675 9.24098 10.009 8.575 9.18749 8.575ZM6.29999 10.0625C6.29999 8.46778 7.59277 7.175 9.18749 7.175C10.7822 7.175 12.075 8.46778 12.075 10.0625C12.075 11.6572 10.7822 12.95 9.18749 12.95C7.59277 12.95 6.29999 11.6572 6.29999 10.0625Z" fill="#41737E"/>
<path fill-rule="evenodd" clip-rule="evenodd" d="M18.8125 16.45C17.991 16.45 17.325 17.116 17.325 17.9375C17.325 18.759 17.991 19.425 18.8125 19.425C19.634 19.425 20.3 18.759 20.3 17.9375C20.3 17.116 19.634 16.45 18.8125 16.45ZM15.925 17.9375C15.925 16.3428 17.2178 15.05 18.8125 15.05C20.4072 15.05 21.7 16.3428 21.7 17.9375C21.7 19.5322 20.4072 20.825 18.8125 20.825C17.2178 20.825 15.925 19.5322 15.925 17.9375Z" fill="#41737E"/>
<path fill-rule="evenodd" clip-rule="evenodd" d="M20.62 7.38003C20.8933 7.6534 20.8933 8.09661 20.62 8.36998L8.36996 20.62C8.0966 20.8933 7.65338 20.8933 7.38001 20.62C7.10665 20.3466 7.10665 19.9034 7.38001 19.63L19.63 7.38003C19.9034 7.10666 20.3466 7.10666 20.62 7.38003Z" fill="#41737E"/>
<path fill-rule="evenodd" clip-rule="evenodd" d="M14 1.575C7.13785 1.575 1.57499 7.13787 1.57499 14C1.57499 20.8621 7.13785 26.425 14 26.425C20.8621 26.425 26.425 20.8621 26.425 14C26.425 7.13787 20.8621 1.575 14 1.575ZM0.174988 14C0.174988 6.36467 6.36465 0.175003 14 0.175003C21.6353 0.175003 27.825 6.36467 27.825 14C27.825 21.6353 21.6353 27.825 14 27.825C6.36465 27.825 0.174988 21.6353 0.174988 14Z" fill="#41737E"/>
</svg>
