<svg width="28" height="28" viewBox="0 0 28 28" fill="none" xmlns="http://www.w3.org/2000/svg">
<path fill-rule="evenodd" clip-rule="evenodd" d="M7.87759 15.8486C8.18559 15.9708 8.3362 16.3196 8.21397 16.6276L5.30671 23.9539L8.15061 23.5984C8.35649 23.5726 8.56106 23.6551 8.69154 23.8164L10.3882 25.9141L12.5514 18.8554C12.6485 18.5386 12.984 18.3605 13.3008 18.4576C13.6177 18.5547 13.7958 18.8902 13.6987 19.2071L11.2049 27.3446C11.1399 27.5567 10.9632 27.7156 10.7454 27.7578C10.5276 27.8 10.3043 27.7186 10.1648 27.5461L7.96836 24.8305L4.44945 25.2704C4.23903 25.2967 4.03035 25.2099 3.90055 25.0423C3.77076 24.8746 3.73912 24.6508 3.81734 24.4537L7.09859 16.1849C7.22081 15.8769 7.56958 15.7263 7.87759 15.8486ZM20.0741 15.9379C20.3811 15.8131 20.7311 15.9609 20.8559 16.2678L24.1809 24.4491C24.2611 24.6464 24.2307 24.8714 24.101 25.0403C23.9714 25.2092 23.7619 25.2968 23.5506 25.2704L20.0352 24.8309L17.8824 27.5419C17.7464 27.7131 17.5281 27.7968 17.3125 27.7604C17.0969 27.7239 16.9182 27.5731 16.8461 27.3667L14.0024 19.2292C13.8931 18.9164 14.058 18.5742 14.3708 18.4648C14.6837 18.3555 15.0259 18.5205 15.1352 18.8333L17.6198 25.943L19.3052 23.8206C19.4354 23.6566 19.6417 23.5724 19.8495 23.5984L22.6838 23.9527L19.7442 16.7197C19.6194 16.4127 19.7671 16.0627 20.0741 15.9379Z" fill="#41737E"/>
<path fill-rule="evenodd" clip-rule="evenodd" d="M14 5.36875C11.4319 5.36875 9.35002 7.45062 9.35002 10.0187C9.35002 12.5869 11.4319 14.6687 14 14.6687C16.5681 14.6687 18.65 12.5869 18.65 10.0187C18.65 7.45062 16.5681 5.36875 14 5.36875ZM8.15002 10.0187C8.15002 6.78788 10.7692 4.16875 14 4.16875C17.2309 4.16875 19.85 6.78788 19.85 10.0187C19.85 13.2496 17.2309 15.8687 14 15.8687C10.7692 15.8687 8.15002 13.2496 8.15002 10.0187Z" fill="#41737E"/>
<path fill-rule="evenodd" clip-rule="evenodd" d="M14 1.91249C9.4989 1.91249 5.85002 5.56137 5.85002 10.0625C5.85002 14.5636 9.4989 18.2125 14 18.2125C18.5011 18.2125 22.15 14.5636 22.15 10.0625C22.15 5.56137 18.5011 1.91249 14 1.91249ZM4.65002 10.0625C4.65002 4.89863 8.83616 0.712494 14 0.712494C19.1639 0.712494 23.35 4.89863 23.35 10.0625C23.35 15.2264 19.1639 19.4125 14 19.4125C8.83616 19.4125 4.65002 15.2264 4.65002 10.0625Z" fill="#41737E"/>
</svg>
