<svg width="68" height="68" viewBox="0 0 68 68" fill="none" xmlns="http://www.w3.org/2000/svg">
<path d="M28.687 51.0219H7.4375V53.1022H28.687V51.0219Z" fill="#E6E6E6"/>
<path d="M35.0399 50.9998H32.9596V57.3748H35.0399V50.9998Z" fill="#E6E6E6"/>
<path d="M41.4157 50.9998H39.3353V57.3748H41.4157V50.9998Z" fill="#E6E6E6"/>
<path d="M47.7902 50.9998H45.7098V57.3748H47.7902V50.9998Z" fill="#E6E6E6"/>
<path d="M54.1647 50.9998H52.0843V57.3748H54.1647V50.9998Z" fill="#E6E6E6"/>
<path d="M60.5405 50.9998H58.4601V57.3748H60.5405V50.9998Z" fill="#E6E6E6"/>
<path d="M66.9152 63.7723V32.3169L51.9507 39.7992L49.8589 2.14734H39.3976L37.2491 36.5249L30.6728 39.8131L28.5909 11.7098H18.1711L16.014 36.5175L1.08468 43.9821V63.7722H0V65.8526H68V63.7722L66.9152 63.7723ZM41.3522 4.22771H47.891L48.0115 6.39734H41.2166L41.3522 4.22771ZM41.0866 8.47785H48.127L48.2476 10.6475H40.951L41.0866 8.47785ZM40.821 12.7277H48.3633L49.9236 40.8128L45.6653 42.9419V32.3169L39.401 35.449L40.821 12.7277ZM20.0786 13.7902H26.6591L26.8198 15.9598H19.89L20.0786 13.7902ZM19.709 18.0402H26.9737L27.1344 20.2098H19.5203L19.709 18.0402ZM19.3394 22.2902H27.2886L28.6611 40.8189L24.4152 42.9419V32.3169L18.1973 35.4259L19.3394 22.2902ZM7.45968 63.7723H3.16519V61.6027H7.45981V63.7723H7.45968ZM26.5847 63.7723H9.54019V56.2902H26.5847V63.7723ZM64.8347 63.7723H28.6652V61.6027H64.8347V63.7723ZM64.8347 59.5222H28.6652V54.2097H7.45968V59.5222H3.16519V45.268L22.3347 35.6832V46.3082L43.5847 35.6832V46.3082L64.8348 35.6832V59.5222H64.8347Z" fill="#E6E6E6"/>
</svg>
