<svg width="68" height="68" viewBox="0 0 68 68" fill="none" xmlns="http://www.w3.org/2000/svg">
<path fill-rule="evenodd" clip-rule="evenodd" d="M56.3179 13.3015C56.3174 13.2869 56.3169 13.2724 56.3159 13.2579C56.3117 13.2003 56.306 13.1437 56.2946 13.0877C56.2946 13.0877 56.2946 13.0877 56.2946 13.0872C56.2832 13.0312 56.2671 12.9757 56.2489 12.9217C56.2443 12.9082 56.2396 12.8947 56.2344 12.8812C56.2152 12.8299 56.1934 12.7795 56.1685 12.7308C56.167 12.7282 56.1659 12.7256 56.1644 12.723C56.1374 12.6722 56.1063 12.6239 56.0725 12.5767C56.0642 12.5648 56.0554 12.5533 56.0466 12.5414C56.0108 12.4947 55.9734 12.4496 55.9314 12.4076L43.913 0.389098C43.8709 0.347076 43.8258 0.309722 43.7791 0.273925C43.7672 0.265106 43.7552 0.255767 43.7433 0.247467C43.6961 0.213745 43.6484 0.182617 43.598 0.156158C43.5944 0.154083 43.5908 0.153045 43.5877 0.15097C43.5399 0.126068 43.4901 0.104797 43.4398 0.0856016C43.4258 0.0804137 43.4123 0.0757444 43.3978 0.0710753C43.3438 0.0529174 43.2894 0.0368347 43.2328 0.0254211C43.2323 0.0254211 43.2318 0.0254211 43.2318 0.0254211C43.1763 0.0145263 43.1197 0.00830076 43.0627 0.00415038C43.0481 0.00363159 43.0336 0.00259398 43.0191 0.00207519C43.004 0.0015564 42.989 0 42.9739 0H12.8831C12.1496 0 11.555 0.594542 11.555 1.32812V58.1749C11.555 58.9085 12.1496 59.503 12.8831 59.503H32.8786V66.6717C32.8786 67.1547 33.1412 67.5999 33.564 67.8338C33.9873 68.0678 34.5035 68.0538 34.9129 67.797L39.9711 64.6235L45.0294 67.797C45.2447 67.9319 45.4901 67.9999 45.7355 67.9999C45.9565 67.9999 46.178 67.9449 46.3783 67.8344C46.8011 67.6004 47.0636 67.1553 47.0636 66.6717V59.503H54.9919C55.7255 59.503 56.32 58.9085 56.32 58.1749V13.3466C56.32 13.3315 56.3185 13.3165 56.3179 13.3015ZM44.3021 4.53481L51.7857 12.0185H44.3021V4.53481ZM32.2234 41.0219C32.13 40.7682 31.978 40.3536 31.9744 40.184C32.0781 40.0553 32.4382 39.8276 32.6587 39.6885C33.1318 39.3897 33.6683 39.0504 34.0574 38.5202C34.4501 37.9843 34.6099 37.3654 34.751 36.8196C34.8127 36.581 34.9123 36.1955 34.9974 36.0497C35.0441 36.0398 35.1422 36.0258 35.3263 36.0258C35.4742 36.0258 35.6397 36.0341 35.815 36.043C36.0163 36.0528 36.2239 36.0632 36.4407 36.0632C36.919 36.0632 37.305 36.0092 37.6552 35.8925C38.2669 35.6891 38.7561 35.2954 39.1877 34.9478C39.4264 34.7558 39.8259 34.4342 39.9649 34.4145C40.1169 34.4342 40.5159 34.7558 40.7545 34.9478C41.1862 35.2954 41.6759 35.6891 42.2876 35.8925C42.6378 36.0092 43.0232 36.0632 43.5021 36.0632C43.7184 36.0632 43.9264 36.0528 44.1272 36.043C44.3026 36.0341 44.4681 36.0258 44.6164 36.0258C44.8006 36.0258 44.8982 36.0393 44.9454 36.0497C45.0304 36.1955 45.1301 36.581 45.1913 36.8196C45.3324 37.3654 45.4927 37.9843 45.8854 38.5202C46.274 39.0504 46.8104 39.3892 47.2841 39.6885C47.5041 39.8281 47.8641 40.0553 47.9679 40.184C47.9643 40.3536 47.8122 40.7682 47.7194 41.0219C47.5217 41.5599 47.2981 42.17 47.2981 42.846C47.2981 43.5219 47.5217 44.1321 47.7189 44.6706C47.8122 44.9243 47.9643 45.3388 47.9679 45.5084C47.8641 45.6371 47.5041 45.8643 47.2841 46.0039C46.8104 46.3027 46.274 46.642 45.8854 47.1722C45.4927 47.7081 45.3324 48.327 45.1913 48.8728C45.1301 49.111 45.0299 49.4969 44.9454 49.6427C44.8982 49.6526 44.8006 49.6666 44.6164 49.6666C44.4681 49.6666 44.3026 49.6583 44.1272 49.6495C43.9264 49.6396 43.7184 49.6292 43.5021 49.6292C43.0232 49.6292 42.6378 49.6832 42.2876 49.7999C41.6759 50.0033 41.1862 50.3976 40.7545 50.7446C40.5195 50.9345 40.1273 51.2494 39.9711 51.2775C39.815 51.2494 39.4233 50.9345 39.1883 50.7446C38.7561 50.3976 38.2669 50.0033 37.6552 49.7999C37.305 49.6832 36.919 49.6292 36.4407 49.6292C36.2244 49.6292 36.0163 49.6396 35.815 49.6495C35.6402 49.6583 35.4747 49.6666 35.3263 49.6666C35.1422 49.6666 35.0446 49.6526 34.9974 49.6427C34.9123 49.4969 34.8127 49.1115 34.751 48.8728C34.6104 48.327 34.4501 47.7081 34.0574 47.1722C33.6688 46.642 33.1323 46.3027 32.6587 46.0039C32.4387 45.8648 32.0787 45.6371 31.9749 45.5084C31.9785 45.3393 32.1305 44.9243 32.2234 44.6706C32.4211 44.1326 32.6447 43.5225 32.6447 42.8465C32.6447 42.17 32.4206 41.5599 32.2234 41.0219ZM44.4074 64.2707L40.6772 61.9304C40.2456 61.6602 39.6967 61.6602 39.2651 61.9304L35.5349 64.2707V52.3187C35.676 52.3145 35.8145 52.3093 35.9489 52.3026C36.1248 52.2933 36.2908 52.285 36.4407 52.285C36.6762 52.285 36.7769 52.3067 36.8158 52.3197C36.974 52.3726 37.2781 52.6175 37.5224 52.8141C38.1424 53.3132 38.9138 53.9342 39.9711 53.9342C41.0284 53.9342 41.7999 53.3132 42.4199 52.8141C42.6642 52.6175 42.9682 52.3726 43.1259 52.3202C43.1654 52.3073 43.266 52.2855 43.5016 52.2855C43.6515 52.2855 43.8175 52.2938 43.9934 52.3026C44.1277 52.3093 44.2663 52.315 44.4069 52.3187V64.2707H44.4074ZM47.0636 56.8467V51.2484C47.4584 50.712 47.6234 50.077 47.763 49.5374C47.8361 49.2541 47.9362 48.8666 48.0275 48.7426C48.1183 48.6181 48.4561 48.4049 48.7025 48.2492C49.3562 47.8363 50.1697 47.3221 50.4929 46.3499C50.8125 45.3907 50.4799 44.4843 50.2127 43.7559C50.0913 43.4254 49.9538 43.0504 49.9538 42.846C49.9538 42.6415 50.0913 42.267 50.2127 41.9365C50.4799 41.2081 50.8125 40.3013 50.4929 39.342C50.1697 38.3703 49.3562 37.8562 48.7025 37.4432C48.4561 37.2876 48.1183 37.0738 48.0275 36.9503C47.9362 36.8258 47.8361 36.4383 47.763 36.155C47.572 35.4157 47.3344 34.4954 46.521 33.8988C45.8735 33.4246 45.1238 33.3696 44.6159 33.3696C44.4011 33.3696 44.1936 33.38 43.9934 33.3903C43.8175 33.3992 43.6515 33.4075 43.5021 33.4075C43.266 33.4075 43.1654 33.3857 43.1265 33.3727C42.9687 33.3203 42.6647 33.0754 42.4204 32.8783C41.7999 32.3797 41.0284 31.7587 39.9711 31.7587C38.9143 31.7587 38.1424 32.3797 37.5224 32.8783C37.2781 33.0749 36.974 33.3203 36.8163 33.3727C36.7774 33.3857 36.6762 33.4075 36.4407 33.4075C36.2913 33.4075 36.1248 33.3992 35.9489 33.3898C35.7486 33.38 35.5416 33.3696 35.3263 33.3696C34.819 33.3696 34.0693 33.4246 33.4223 33.8988C32.6084 34.4954 32.3702 35.4157 32.1793 36.155C32.1062 36.4383 32.006 36.8258 31.9152 36.9498C31.8239 37.0738 31.4862 37.2876 31.2398 37.4432C30.5861 37.8562 29.7731 38.3703 29.4494 39.342C29.1298 40.3018 29.4624 41.2081 29.7295 41.9365C29.8509 42.267 29.9884 42.6415 29.9884 42.846C29.9884 43.0504 29.8509 43.4254 29.7295 43.7559C29.4624 44.4843 29.1298 45.3907 29.4494 46.3504C29.7731 47.3221 30.5866 47.8363 31.2398 48.2492C31.4867 48.4049 31.8239 48.6186 31.9152 48.7426C32.006 48.8666 32.1062 49.2541 32.1793 49.5374C32.3189 50.077 32.4844 50.7125 32.8792 51.2484V56.8467H14.2113V2.65624H41.6458V13.3466C41.6458 14.0802 42.2404 14.6747 42.9739 14.6747H53.6638V56.8467H47.0636Z" fill="#E6E6E6"/>
<path fill-rule="evenodd" clip-rule="evenodd" d="M19.373 14.6747H36.484C37.2171 14.6747 37.8122 14.0802 37.8122 13.3466C37.8122 12.613 37.2171 12.0185 36.484 12.0185H19.373C18.6394 12.0185 18.0449 12.613 18.0449 13.3466C18.0449 14.0802 18.64 14.6747 19.373 14.6747Z" fill="#E6E6E6"/>
<path fill-rule="evenodd" clip-rule="evenodd" d="M48.6509 18.7224H19.373C18.6394 18.7224 18.0449 19.317 18.0449 20.0505C18.0449 20.7841 18.6394 21.3787 19.373 21.3787H48.6509C49.3845 21.3787 49.979 20.7841 49.979 20.0505C49.979 19.317 49.3845 18.7224 48.6509 18.7224Z" fill="#E6E6E6"/>
<path fill-rule="evenodd" clip-rule="evenodd" d="M43.3384 25.4263H19.373C18.6394 25.4263 18.0449 26.0214 18.0449 26.7545C18.0449 27.488 18.6394 28.0826 19.373 28.0826H43.3384C44.072 28.0826 44.6665 27.488 44.6665 26.7545C44.6665 26.0214 44.072 25.4263 43.3384 25.4263Z" fill="#E6E6E6"/>
<path fill-rule="evenodd" clip-rule="evenodd" d="M48.6511 25.4263C47.9196 25.4263 47.3229 26.0229 47.3229 26.7545C47.3229 27.486 47.9196 28.0826 48.6511 28.0826C49.3831 28.0826 49.9792 27.486 49.9792 26.7545C49.9792 26.0229 49.3831 25.4263 48.6511 25.4263Z" fill="#E6E6E6"/>
</svg>
