<svg width="68" height="68" viewBox="0 0 68 68" fill="none" xmlns="http://www.w3.org/2000/svg">
<g clip-path="url(#clip0)">
<path d="M58.9407 9.04898C42.3937 9.04898 34.9749 0.509016 34.8695 0.385445C34.4387 -0.130376 33.5601 -0.129243 33.1293 0.386579C33.0567 0.472738 25.7184 9.04784 9.05912 9.04784C8.43333 9.04784 7.92545 9.55573 7.92545 10.1815V31.8177C7.92545 43.6453 13.2424 54.8857 22.1485 61.8838C25.7389 64.7055 29.6172 66.7473 33.6768 67.9512C33.7823 67.983 33.8911 67.9989 33.9999 67.9989C34.1088 67.9989 34.2165 67.983 34.323 67.9512C38.3827 66.7462 42.261 64.7055 45.8514 61.8838C54.7575 54.8845 60.0744 43.6453 60.0744 31.8177V10.1827C60.0744 9.55686 59.5665 9.04898 58.9407 9.04898ZM57.8071 31.8188C57.8071 42.956 52.8144 53.5298 44.4501 60.1028C41.1818 62.6717 37.6674 64.5468 33.9999 65.6816C30.3325 64.548 26.8181 62.6717 23.5497 60.1028C15.1855 53.5309 10.1928 42.956 10.1928 31.8188V11.3039C24.0712 10.9955 31.5795 5.07205 33.9999 2.75029C36.4203 5.07318 43.9286 10.9955 57.8071 11.3039V31.8188Z" fill="#E6E6E6"/>
<path d="M33.3628 9.05346C29.9448 11.3764 24.1087 14.3693 15.7183 15.4394C15.1515 15.512 14.7275 15.9938 14.7275 16.5641V31.8199C14.7275 41.5774 19.0729 50.818 26.3522 56.5385C28.6445 58.3399 31.0785 59.7525 33.5862 60.7365C33.7199 60.7887 33.8594 60.8147 34 60.8147C34.1405 60.8147 34.2811 60.7887 34.4137 60.7365C36.9192 59.7536 39.3543 58.341 41.6488 56.5385C48.927 50.818 53.2724 41.5774 53.2724 31.8199V16.5641C53.2724 15.9938 52.8484 15.512 52.2816 15.4394C43.8913 14.3693 38.0551 11.3764 34.6371 9.05346C34.2528 8.79159 33.7471 8.79159 33.3628 9.05346ZM51.0051 17.5515V31.8188C51.0051 40.887 46.9839 49.461 40.2476 54.7541C38.2546 56.3197 36.1551 57.5645 34 58.4567C31.8448 57.5633 29.7453 56.3197 27.7534 54.7541C21.0171 49.4599 16.9949 40.8859 16.9949 31.8176V17.5515C24.8161 16.394 30.4572 13.6448 34 11.3503C37.5427 13.6448 43.1838 16.394 51.0051 17.5515Z" fill="#E6E6E6"/>
<path d="M23.4648 33.1883C23.0216 32.7451 22.3051 32.7451 21.8618 33.1883C21.4185 33.6316 21.4185 34.3481 21.8618 34.7913L30.9312 43.8607C31.1443 44.0739 31.4323 44.1929 31.7327 44.1929C31.7452 44.1929 31.7576 44.1929 31.7701 44.1929C32.0841 44.1827 32.3789 44.0421 32.5852 43.8063L48.4567 25.6675C48.8693 25.1959 48.8217 24.4806 48.3501 24.0679C47.8785 23.6553 47.1631 23.704 46.7505 24.1745L31.6772 41.4007L23.4648 33.1883Z" fill="#E6E6E6"/>
</g>
<defs>
<clipPath id="clip0">
<rect width="68" height="68" fill="white"/>
</clipPath>
</defs>
</svg>
