<svg id="Ebene_1" data-name="Ebene 1" xmlns="http://www.w3.org/2000/svg" viewBox="0 0 584.4 116.01"><defs><style>.cls-1{fill:#231f20;}</style></defs><title>Арт-Снаб</title><path class="cls-1" d="M275.49,142.41l-7.25,29h-14.5L281.13,58.63h20.95l27.39,112.79H315l-7.25-29Zm16.43-67.67h-.64l-13.37,56.39H305.3Z" transform="translate(-253.74 -57.02)"/><path class="cls-1" d="M361,171.42h-14.5V90.85H361V125.5h26.59V90.85h14.5v80.56h-14.5V136H361Z" transform="translate(-253.74 -57.02)"/><path class="cls-1" d="M474,90.85v10.47H453.05v70.09h-14.5V101.33H417.6V90.85Z" transform="translate(-253.74 -57.02)"/><path class="cls-1" d="M483.83,117.44h48.34v11.28H483.83Z" transform="translate(-253.74 -57.02)"/><path class="cls-1" d="M583.88,173a38.68,38.68,0,0,1-15.07-2.74,25.56,25.56,0,0,1-11.12-9.35q-4.59-6.6-6.93-17.8T548.44,115q0-16.92,2.34-28.12t6.69-17.8a24.47,24.47,0,0,1,10.63-9.35A35.16,35.16,0,0,1,582.27,57a95.7,95.7,0,0,1,13.86,1,58.87,58.87,0,0,1,10.31,2.26v7.25H585.49a19.43,19.43,0,0,0-8.94,2.09q-4.11,2.1-7.17,7.49t-4.75,14.58A132.78,132.78,0,0,0,562.94,115a126.68,126.68,0,0,0,1.77,23.36q1.77,9.18,4.91,14.58a17.74,17.74,0,0,0,7.57,7.49,22.88,22.88,0,0,0,9.91,2.09h20.95v7.25a58.6,58.6,0,0,1-10.31,2.26A95.67,95.67,0,0,1,583.88,173Z" transform="translate(-253.74 -57.02)"/><path class="cls-1" d="M638.83,171.42h-14.5V90.85h14.5V125.5h26.59V90.85h14.5v80.56h-14.5V136H638.83Z" transform="translate(-253.74 -57.02)"/><path class="cls-1" d="M725.19,173a43.2,43.2,0,0,1-9.91-1,16.54,16.54,0,0,1-7.57-3.95,19.26,19.26,0,0,1-4.91-7.9A39.16,39.16,0,0,1,701,147.25a36.54,36.54,0,0,1,1.77-12.41,18.69,18.69,0,0,1,4.91-7.65,17,17,0,0,1,7.57-3.87,43.2,43.2,0,0,1,9.91-1,73.3,73.3,0,0,1,8.06.48q4.35.48,8.06,1.13v-7.25a27.66,27.66,0,0,0-1.21-8.94,12.23,12.23,0,0,0-3.46-5.4,12.51,12.51,0,0,0-5.56-2.66,35.11,35.11,0,0,0-7.49-.73H707.46V92.46a60.83,60.83,0,0,1,9.1-2.26,58.12,58.12,0,0,1,10.23-1,62.61,62.61,0,0,1,12.65,1.13,20.6,20.6,0,0,1,9,4.11,18.18,18.18,0,0,1,5.48,8.38,43.19,43.19,0,0,1,1.85,13.78v54.78H743.72l-.81-4.83h-.81a20.94,20.94,0,0,1-7.57,4.75A26.41,26.41,0,0,1,725.19,173Zm16.11-41.09H730a16.69,16.69,0,0,0-10.31,3.14q-4.19,3.14-4.19,12.17a23.9,23.9,0,0,0,1.13,8,12,12,0,0,0,3.06,4.91,10.93,10.93,0,0,0,4.59,2.5,21.82,21.82,0,0,0,12-.24,16.78,16.78,0,0,0,5-2.26Z" transform="translate(-253.74 -57.02)"/><path class="cls-1" d="M793,98.1a50.05,50.05,0,0,1,7.57-2.9,33.76,33.76,0,0,1,9.34-1.13,34.46,34.46,0,0,1,12.25,2A19.94,19.94,0,0,1,831,102.7a31.51,31.51,0,0,1,5.32,12.17,83.62,83.62,0,0,1,1.77,18.69,80.15,80.15,0,0,1-1.85,18.69,30.81,30.81,0,0,1-5.56,12.17,20.79,20.79,0,0,1-9.26,6.61,43.82,43.82,0,0,1-26.26,0,20.78,20.78,0,0,1-9.26-6.61,30.74,30.74,0,0,1-5.56-12.17,80,80,0,0,1-1.85-18.69V107a107.09,107.09,0,0,1,2.09-23.12q2.09-9.26,6.85-14.9a26.6,26.6,0,0,1,12.49-8.14,72.23,72.23,0,0,1,18.85-3L836.52,57l.81,6.44q-4.19,1.78-9.18,3.38a55.65,55.65,0,0,1-11.76,2.26,38.64,38.64,0,0,0-10.47,2.42,18.67,18.67,0,0,0-7.25,5.16,21.31,21.31,0,0,0-4.27,8.62A51.38,51.38,0,0,0,793,98.1Zm0,35.45a82.6,82.6,0,0,0,1.13,15,28.63,28.63,0,0,0,3.22,9.43,12.2,12.2,0,0,0,4.83,4.83,14.37,14.37,0,0,0,12.25,0,12.23,12.23,0,0,0,4.83-4.83,28.77,28.77,0,0,0,3.22-9.43,82.87,82.87,0,0,0,1.13-15,72.76,72.76,0,0,0-1.21-14.5,25.25,25.25,0,0,0-3.54-9.18,12.66,12.66,0,0,0-5.8-4.75,21.63,21.63,0,0,0-8-1.37,24.82,24.82,0,0,0-7,1A16.72,16.72,0,0,0,793,107Z" transform="translate(-253.74 -57.02)"/></svg>