<svg width="64" height="64" viewBox="0 0 64 64" fill="none" xmlns="http://www.w3.org/2000/svg">
<path d="M53.9995 6.00001V16H43.9995M31.9995 59C27.3867 58.9996 22.851 57.8174 18.8249 55.5662C14.7987 53.315 11.4165 50.0698 9.00074 46.1402C6.58499 42.2106 5.21627 37.7276 5.02514 33.1187C4.83401 28.5099 5.82684 23.929 7.90894 19.8129C9.99103 15.6967 13.093 12.1827 16.9189 9.6058C20.7448 7.02895 25.1671 5.47526 29.764 5.09292C34.3609 4.71057 38.9791 5.51232 43.1781 7.4217C47.3772 9.33108 51.017 12.2844 53.7505 16M57.7905 40.013C57.3694 41.3701 56.841 42.6916 56.2105 43.965M44.9845 55.678C42.7914 56.8839 40.4402 57.7769 37.9995 58.331L44.9845 55.678ZM53.7505 48C52.3945 49.84 50.8117 51.5015 49.0395 52.945L53.7505 48Z" stroke="#474747" stroke-width="2" stroke-miterlimit="10" stroke-linecap="round" stroke-linejoin="round"/>
<path d="M32 35C33.6569 35 35 33.6569 35 32C35 30.3431 33.6569 29 32 29C30.3431 29 29 30.3431 29 32C29 33.6569 30.3431 35 32 35Z" stroke="#CD9A67" stroke-width="2" stroke-miterlimit="10" stroke-linecap="round" stroke-linejoin="round"/>
<path d="M32 12V29M33.961 34.261L44 42L33.961 34.261Z" stroke="#CD9A67" stroke-width="2" stroke-miterlimit="10" stroke-linecap="round" stroke-linejoin="round"/>
</svg>
