<svg width="28" height="28" viewBox="0 0 28 28" fill="none" xmlns="http://www.w3.org/2000/svg">
<path d="M9.68336 18.7833C9.45002 18.6667 9.33336 18.6667 9.10002 18.6667C8.98336 18.6667 8.98335 18.7833 8.98335 18.7833L7.23335 20.5333C7.00002 20.7667 7.00002 21.1167 7.23335 21.35C7.46668 21.5833 7.81668 21.5833 8.05001 21.35L8.75002 20.65V22.75C8.75002 23.1 8.98335 23.3333 9.33335 23.3333C9.68335 23.3333 9.91669 23.1 9.91669 22.75V20.65L10.6167 21.35C10.7334 21.4667 10.85 21.4667 11.0834 21.4667C11.3167 21.4667 11.4333 21.4667 11.55 21.35C11.7833 21.1167 11.7833 20.7667 11.55 20.5333L9.68336 18.7833Z" fill="#41737E"/>
<path d="M26.95 3.5L14.1167 0H13.8833L1.05 3.5C0.81667 3.61667 0.583344 3.85 0.583344 4.08333V23.9167C0.583344 24.15 0.81667 24.3833 1.05 24.5L13.8833 28H14.1167L26.95 24.5C27.1834 24.3833 27.4167 24.15 27.4167 23.9167V4.08333C27.4167 3.85 27.1834 3.61667 26.95 3.5ZM8.75001 2.68332V13.1833L8.16668 13.7667L7.46667 13.0667C7.23334 12.8333 6.88334 12.8333 6.65001 13.0667L5.95002 13.7667L5.36668 13.1833L5.25001 3.61667L8.75001 2.68332ZM1.75001 23.45V4.54999L4.08334 3.96666V13.5333C4.08334 13.65 4.20002 13.8833 4.20002 14L5.36668 15.1667C5.60002 15.4 5.95001 15.4 6.18335 15.1667L6.88334 14.4667L7.58334 15.1667C7.70001 15.2833 7.81667 15.2833 8.05 15.2833C8.28334 15.2833 8.40001 15.2833 8.51668 15.1667L9.68335 14C9.80001 13.8833 9.8 13.7667 9.8 13.5333V2.33333L13.3 1.40001L13.4167 26.6L1.75001 23.45ZM22.75 3.5V13.0667L22.1667 13.65L21.4667 12.95C21.2333 12.7167 20.8833 12.7167 20.65 12.95L19.95 13.65L19.3667 13.0667L19.25 2.56668L22.75 3.5ZM14.5833 26.6V1.28334L18.0833 2.21666V13.3C18.0833 13.4167 18.2 13.65 18.2 13.7667L19.3667 14.9333C19.6 15.1667 19.95 15.1667 20.1833 14.9333L20.8833 14.2333L21.5833 14.9333C21.7 15.05 21.8167 15.05 22.05 15.05C22.2833 15.05 22.4 15.05 22.5167 14.9333L23.6833 13.7667C23.8 13.65 23.8 13.5333 23.8 13.3V3.73335L26.1333 4.31668L26.25 23.45L14.5833 26.6Z" fill="#41737E"/>
<path d="M19.6 21L16.1 22.1666C15.75 22.2833 15.6334 22.6333 15.75 22.8667C15.8667 23.1 16.1 23.2166 16.3334 23.2166H16.5667L20.0667 22.05C20.4167 21.9333 20.5334 21.5833 20.4167 21.35C20.3 21.1166 19.95 20.8833 19.6 21Z" fill="#41737E"/>
</svg>
