<svg width="64" height="64" viewBox="0 0 64 64" fill="none" xmlns="http://www.w3.org/2000/svg">
<path d="M46.6667 31.5915L46.3218 30.8696L46.6667 31.5915ZM28.8892 39.6371L29.2621 38.9293L28.8892 39.6371ZM29.7863 39.6547L30.1312 40.3766L29.7863 39.6547ZM62.2192 22.387L61.8505 23.097L62.2192 22.387ZM30.1949 6.26631L29.8016 5.56965L30.1949 6.26631ZM31.1474 6.24968L31.5161 5.53972L31.1474 6.24968ZM1.54259 22.4411L1.93587 23.1377L1.54259 22.4411ZM1.93587 23.1377L30.5882 6.96297L29.8016 5.56965L1.14932 21.7444L1.93587 23.1377ZM30.7787 6.95964L61.8505 23.097L62.5879 21.6771L31.5161 5.53972L30.7787 6.95964ZM29.2621 38.9293L19.7062 33.8945L18.9604 35.31L28.5163 40.3449L29.2621 38.9293ZM11.0599 28.6368L1.93587 23.4861L1.14932 24.8794L10.2734 30.0301L11.0599 28.6368ZM61.8445 23.4549L46.3218 30.8696L47.0115 32.3134L62.5341 24.8987L61.8445 23.4549ZM46.3218 30.8696L29.4415 38.9329L30.1312 40.3766L47.0115 32.3134L46.3218 30.8696ZM45.8667 31.5915V38.3657H47.4667V31.5915H45.8667ZM45.8667 38.3657C45.8667 39.6549 45.2856 41.3314 44.0843 43.0462C42.8923 44.7481 41.1263 46.4326 38.8515 47.7393C34.3231 50.3405 27.7486 51.4603 19.6346 48.1623L19.0321 49.6445C27.5847 53.1208 34.6769 51.9825 39.6485 49.1267C42.1237 47.7048 44.0661 45.8611 45.3948 43.9642C46.7144 42.0803 47.4667 40.0873 47.4667 38.3657H45.8667ZM28.5163 40.3449C29.0193 40.6099 29.6181 40.6217 30.1312 40.3766L29.4415 38.9329C29.3845 38.9601 29.318 38.9588 29.2621 38.9293L28.5163 40.3449ZM61.8505 23.097C61.9969 23.1731 61.9934 23.3838 61.8445 23.4549L62.5341 24.8987C63.8745 24.2584 63.9062 22.3617 62.5879 21.6771L61.8505 23.097ZM30.5882 6.96297C30.6471 6.92974 30.7187 6.92849 30.7787 6.95964L31.5161 5.53972C30.9763 5.25935 30.3314 5.27061 29.8016 5.56965L30.5882 6.96297ZM1.14932 21.7444C-0.0708547 22.4332 -0.0708474 24.1906 1.14932 24.8794L1.93587 23.4861C1.8003 23.4095 1.8003 23.2143 1.93587 23.1377L1.14932 21.7444Z" fill="black"/>
<path d="M19 34.3469L18.6403 33.6324L18.2 33.854V34.3469H19ZM10 29.0612L9.60433 28.3659L9.2 28.596V29.0612H10ZM19 57L18.3174 57.4172L19.8 59.8428V57H19ZM10 52.4694H9.2V53.7264L10.3388 53.1941L10 52.4694ZM15.3126 50.9672L15.9952 50.55L15.3126 50.9672ZM14.0359 50.5828L13.6971 49.8581L14.0359 50.5828ZM26.3944 20.2249L26.739 19.5029L26.3944 20.2249ZM25.4692 20.2583L25.8648 20.9536L25.4692 20.2583ZM35.178 26.2029L34.8182 25.4884L35.178 26.2029ZM35.159 24.4072L34.8144 25.1292L35.159 24.4072ZM19.3597 35.0615L35.5377 26.9175L34.8182 25.4884L18.6403 33.6324L19.3597 35.0615ZM35.5035 23.6852L26.739 19.5029L26.0499 20.9469L34.8144 25.1292L35.5035 23.6852ZM25.0735 19.563L9.60433 28.3659L10.3957 29.7565L25.8648 20.9536L25.0735 19.563ZM19.6826 56.5828L15.9952 50.55L14.63 51.3844L18.3174 57.4172L19.6826 56.5828ZM13.6971 49.8581L9.66123 51.7447L10.3388 53.1941L14.3747 51.3076L13.6971 49.8581ZM10.8 52.4694V29.0612H9.2V52.4694H10.8ZM18.2 34.3469C18.2 34.3481 18.2 34.3494 18.2 34.3506C18.2 34.3519 18.2 34.3533 18.2 34.3547C18.2 34.3561 18.2 34.3575 18.2 34.359C18.2 34.3605 18.2 34.3621 18.2 34.3637C18.2 34.3653 18.2 34.3669 18.2 34.3687C18.2 34.3704 18.2 34.3721 18.2 34.374C18.2 34.3758 18.2 34.3777 18.2 34.3796C18.2 34.3815 18.2 34.3835 18.2 34.3855C18.2 34.3876 18.2 34.3897 18.2 34.3918C18.2 34.3939 18.2 34.3961 18.2 34.3984C18.2 34.4006 18.2 34.4029 18.2 34.4052C18.2 34.4076 18.2 34.41 18.2 34.4124C18.2 34.4149 18.2 34.4174 18.2 34.42C18.2 34.4225 18.2 34.4251 18.2 34.4278C18.2 34.4304 18.2 34.4332 18.2 34.4359C18.2 34.4387 18.2 34.4415 18.2 34.4444C18.2 34.4472 18.2 34.4501 18.2 34.4531C18.2 34.4561 18.2 34.4591 18.2 34.4622C18.2 34.4652 18.2 34.4684 18.2 34.4715C18.2 34.4747 18.2 34.4779 18.2 34.4812C18.2 34.4845 18.2 34.4878 18.2 34.4912C18.2 34.4945 18.2 34.498 18.2 34.5014C18.2 34.5049 18.2 34.5084 18.2 34.512C18.2 34.5156 18.2 34.5192 18.2 34.5229C18.2 34.5266 18.2 34.5303 18.2 34.5341C18.2 34.5379 18.2 34.5417 18.2 34.5456C18.2 34.5494 18.2 34.5534 18.2 34.5574C18.2 34.5613 18.2 34.5654 18.2 34.5694C18.2 34.5735 18.2 34.5776 18.2 34.5818C18.2 34.586 18.2 34.5902 18.2 34.5945C18.2 34.5987 18.2 34.6031 18.2 34.6074C18.2 34.6118 18.2 34.6162 18.2 34.6207C18.2 34.6252 18.2 34.6297 18.2 34.6343C18.2 34.6388 18.2 34.6434 18.2 34.6481C18.2 34.6528 18.2 34.6575 18.2 34.6622C18.2 34.667 18.2 34.6718 18.2 34.6767C18.2 34.6815 18.2 34.6864 18.2 34.6914C18.2 34.6963 18.2 34.7013 18.2 34.7064C18.2 34.7114 18.2 34.7165 18.2 34.7217C18.2 34.7268 18.2 34.732 18.2 34.7372C18.2 34.7425 18.2 34.7478 18.2 34.7531C18.2 34.7584 18.2 34.7638 18.2 34.7692C18.2 34.7747 18.2 34.7801 18.2 34.7857C18.2 34.7912 18.2 34.7968 18.2 34.8024C18.2 34.808 18.2 34.8137 18.2 34.8194C18.2 34.8251 18.2 34.8308 18.2 34.8366C18.2 34.8424 18.2 34.8483 18.2 34.8542C18.2 34.8601 18.2 34.866 18.2 34.872C18.2 34.878 18.2 34.884 18.2 34.8901C18.2 34.8962 18.2 34.9023 18.2 34.9085C18.2 34.9147 18.2 34.9209 18.2 34.9272C18.2 34.9334 18.2 34.9397 18.2 34.9461C18.2 34.9525 18.2 34.9589 18.2 34.9653C18.2 34.9718 18.2 34.9783 18.2 34.9848C18.2 34.9913 18.2 34.9979 18.2 35.0045C18.2 35.0112 18.2 35.0178 18.2 35.0246C18.2 35.0313 18.2 35.038 18.2 35.0449C18.2 35.0517 18.2 35.0585 18.2 35.0654C18.2 35.0723 18.2 35.0793 18.2 35.0862C18.2 35.0932 18.2 35.1003 18.2 35.1073C18.2 35.1144 18.2 35.1215 18.2 35.1287C18.2 35.1359 18.2 35.1431 18.2 35.1503C18.2 35.1576 18.2 35.1649 18.2 35.1722C18.2 35.1796 18.2 35.1869 18.2 35.1944C18.2 35.2018 18.2 35.2093 18.2 35.2168C18.2 35.2243 18.2 35.2319 18.2 35.2395C18.2 35.2471 18.2 35.2547 18.2 35.2624C18.2 35.2701 18.2 35.2778 18.2 35.2856C18.2 35.2934 18.2 35.3012 18.2 35.309C18.2 35.3169 18.2 35.3248 18.2 35.3327C18.2 35.3407 18.2 35.3487 18.2 35.3567C18.2 35.3647 18.2 35.3728 18.2 35.3809C18.2 35.389 18.2 35.3972 18.2 35.4054C18.2 35.4136 18.2 35.4219 18.2 35.4301C18.2 35.4384 18.2 35.4467 18.2 35.4551C18.2 35.4635 18.2 35.4719 18.2 35.4803C18.2 35.4888 18.2 35.4973 18.2 35.5058C18.2 35.5144 18.2 35.5229 18.2 35.5316C18.2 35.5402 18.2 35.5488 18.2 35.5575C18.2 35.5662 18.2 35.575 18.2 35.5838C18.2 35.5926 18.2 35.6014 18.2 35.6102C18.2 35.6191 18.2 35.628 18.2 35.637C18.2 35.6459 18.2 35.6549 18.2 35.6639C18.2 35.673 18.2 35.682 18.2 35.6911C18.2 35.7003 18.2 35.7094 18.2 35.7186C18.2 35.7278 18.2 35.737 18.2 35.7463C18.2 35.7556 18.2 35.7649 18.2 35.7742C18.2 35.7836 18.2 35.793 18.2 35.8024C18.2 35.8118 18.2 35.8213 18.2 35.8308C18.2 35.8403 18.2 35.8499 18.2 35.8595C18.2 35.869 18.2 35.8787 18.2 35.8883C18.2 35.898 18.2 35.9077 18.2 35.9175C18.2 35.9272 18.2 35.937 18.2 35.9468C18.2 35.9566 18.2 35.9665 18.2 35.9764C18.2 35.9863 18.2 35.9963 18.2 36.0062C18.2 36.0162 18.2 36.0262 18.2 36.0363C18.2 36.0464 18.2 36.0564 18.2 36.0666C18.2 36.0767 18.2 36.0869 18.2 36.0971C18.2 36.1073 18.2 36.1176 18.2 36.1278C18.2 36.1381 18.2 36.1485 18.2 36.1588C18.2 36.1692 18.2 36.1796 18.2 36.19C18.2 36.2005 18.2 36.2109 18.2 36.2215C18.2 36.232 18.2 36.2425 18.2 36.2531C18.2 36.2637 18.2 36.2743 18.2 36.285C18.2 36.2957 18.2 36.3064 18.2 36.3171C18.2 36.3278 18.2 36.3386 18.2 36.3494C18.2 36.3602 18.2 36.3711 18.2 36.382C18.2 36.3928 18.2 36.4038 18.2 36.4147C18.2 36.4257 18.2 36.4367 18.2 36.4477C18.2 36.4587 18.2 36.4698 18.2 36.4809C18.2 36.492 18.2 36.5032 18.2 36.5143C18.2 36.5255 18.2 36.5367 18.2 36.548C18.2 36.5592 18.2 36.5705 18.2 36.5818C18.2 36.5931 18.2 36.6045 18.2 36.6159C18.2 36.6273 18.2 36.6387 18.2 36.6502C18.2 36.6616 18.2 36.6731 18.2 36.6847C18.2 36.6962 18.2 36.7078 18.2 36.7194C18.2 36.731 18.2 36.7426 18.2 36.7543C18.2 36.766 18.2 36.7777 18.2 36.7894C18.2 36.8012 18.2 36.813 18.2 36.8248C18.2 36.8366 18.2 36.8484 18.2 36.8603C18.2 36.8722 18.2 36.8841 18.2 36.8961C18.2 36.908 18.2 36.92 18.2 36.932C18.2 36.944 18.2 36.9561 18.2 36.9682C18.2 36.9803 18.2 36.9924 18.2 37.0045C18.2 37.0167 18.2 37.0289 18.2 37.0411C18.2 37.0533 18.2 37.0656 18.2 37.0779C18.2 37.0902 18.2 37.1025 18.2 37.1149C18.2 37.1272 18.2 37.1396 18.2 37.152C18.2 37.1645 18.2 37.1769 18.2 37.1894C18.2 37.2019 18.2 37.2144 18.2 37.227C18.2 37.2395 18.2 37.2521 18.2 37.2647C18.2 37.2774 18.2 37.29 18.2 37.3027C18.2 37.3154 18.2 37.3281 18.2 37.3409C18.2 37.3536 18.2 37.3664 18.2 37.3792C18.2 37.392 18.2 37.4049 18.2 37.4178C18.2 37.4306 18.2 37.4436 18.2 37.4565C18.2 37.4695 18.2 37.4824 18.2 37.4954C18.2 37.5084 18.2 37.5215 18.2 37.5346C18.2 37.5476 18.2 37.5607 18.2 37.5739C18.2 37.587 18.2 37.6002 18.2 37.6134C18.2 37.6266 18.2 37.6398 18.2 37.6531C18.2 37.6663 18.2 37.6796 18.2 37.6929C18.2 37.7063 18.2 37.7196 18.2 37.733C18.2 37.7464 18.2 37.7598 18.2 37.7732C18.2 37.7867 18.2 37.8002 18.2 37.8137C18.2 37.8272 18.2 37.8407 18.2 37.8543C18.2 37.8678 18.2 37.8814 18.2 37.8951C18.2 37.9087 18.2 37.9224 18.2 37.936C18.2 37.9497 18.2 37.9635 18.2 37.9772C18.2 37.9909 18.2 38.0047 18.2 38.0185C18.2 38.0323 18.2 38.0462 18.2 38.06C18.2 38.0739 18.2 38.0878 18.2 38.1017C18.2 38.1157 18.2 38.1296 18.2 38.1436C18.2 38.1576 18.2 38.1716 18.2 38.1856C18.2 38.1997 18.2 38.2137 18.2 38.2278C18.2 38.2419 18.2 38.2561 18.2 38.2702C18.2 38.2844 18.2 38.2986 18.2 38.3128C18.2 38.327 18.2 38.3413 18.2 38.3555C18.2 38.3698 18.2 38.3841 18.2 38.3984C18.2 38.4128 18.2 38.4271 18.2 38.4415C18.2 38.4559 18.2 38.4703 18.2 38.4847C18.2 38.4992 18.2 38.5136 18.2 38.5281C18.2 38.5426 18.2 38.5572 18.2 38.5717C18.2 38.5863 18.2 38.6008 18.2 38.6154C18.2 38.63 18.2 38.6447 18.2 38.6593C18.2 38.674 18.2 38.6887 18.2 38.7034C18.2 38.7181 18.2 38.7329 18.2 38.7476C18.2 38.7624 18.2 38.7772 18.2 38.792C18.2 38.8068 18.2 38.8217 18.2 38.8366C18.2 38.8515 18.2 38.8664 18.2 38.8813C18.2 38.8962 18.2 38.9112 18.2 38.9262C18.2 38.9411 18.2 38.9561 18.2 38.9712C18.2 38.9862 18.2 39.0013 18.2 39.0164C18.2 39.0314 18.2 39.0466 18.2 39.0617C18.2 39.0768 18.2 39.092 18.2 39.1072C18.2 39.1224 18.2 39.1376 18.2 39.1528C18.2 39.1681 18.2 39.1833 18.2 39.1986C18.2 39.2139 18.2 39.2292 18.2 39.2446C18.2 39.2599 18.2 39.2753 18.2 39.2907C18.2 39.3061 18.2 39.3215 18.2 39.3369C18.2 39.3524 18.2 39.3679 18.2 39.3833C18.2 39.3988 18.2 39.4144 18.2 39.4299C18.2 39.4454 18.2 39.461 18.2 39.4766C18.2 39.4922 18.2 39.5078 18.2 39.5234C18.2 39.5391 18.2 39.5547 18.2 39.5704C18.2 39.5861 18.2 39.6018 18.2 39.6176C18.2 39.6333 18.2 39.6491 18.2 39.6648C18.2 39.6806 18.2 39.6964 18.2 39.7123C18.2 39.7281 18.2 39.7439 18.2 39.7598C18.2 39.7757 18.2 39.7916 18.2 39.8075C18.2 39.8234 18.2 39.8394 18.2 39.8553C18.2 39.8713 18.2 39.8873 18.2 39.9033C18.2 39.9193 18.2 39.9354 18.2 39.9514C18.2 39.9675 18.2 39.9836 18.2 39.9997C18.2 40.0158 18.2 40.0319 18.2 40.0481C18.2 40.0642 18.2 40.0804 18.2 40.0966C18.2 40.1128 18.2 40.129 18.2 40.1453C18.2 40.1615 18.2 40.1778 18.2 40.194C18.2 40.2103 18.2 40.2266 18.2 40.243C18.2 40.2593 18.2 40.2756 18.2 40.292C18.2 40.3084 18.2 40.3248 18.2 40.3412C18.2 40.3576 18.2 40.374 18.2 40.3905C18.2 40.407 18.2 40.4234 18.2 40.4399C18.2 40.4564 18.2 40.473 18.2 40.4895C18.2 40.506 18.2 40.5226 18.2 40.5392C18.2 40.5558 18.2 40.5724 18.2 40.589C18.2 40.6056 18.2 40.6223 18.2 40.6389C18.2 40.6556 18.2 40.6723 18.2 40.689C18.2 40.7057 18.2 40.7224 18.2 40.7392C18.2 40.7559 18.2 40.7727 18.2 40.7895C18.2 40.8063 18.2 40.8231 18.2 40.8399C18.2 40.8567 18.2 40.8736 18.2 40.8905C18.2 40.9073 18.2 40.9242 18.2 40.9411C18.2 40.958 18.2 40.9749 18.2 40.9919C18.2 41.0088 18.2 41.0258 18.2 41.0428C18.2 41.0598 18.2 41.0768 18.2 41.0938C18.2 41.1108 18.2 41.1279 18.2 41.1449C18.2 41.162 18.2 41.1791 18.2 41.1962C18.2 41.2133 18.2 41.2304 18.2 41.2475C18.2 41.2646 18.2 41.2818 18.2 41.299C18.2 41.3161 18.2 41.3333 18.2 41.3505C18.2 41.3677 18.2 41.385 18.2 41.4022C18.2 41.4195 18.2 41.4367 18.2 41.454C18.2 41.4713 18.2 41.4886 18.2 41.5059C18.2 41.5232 18.2 41.5406 18.2 41.5579C18.2 41.5753 18.2 41.5926 18.2 41.61C18.2 41.6274 18.2 41.6448 18.2 41.6622C18.2 41.6796 18.2 41.6971 18.2 41.7145C18.2 41.732 18.2 41.7495 18.2 41.767C18.2 41.7845 18.2 41.802 18.2 41.8195C18.2 41.837 18.2 41.8545 18.2 41.8721C18.2 41.8897 18.2 41.9072 18.2 41.9248C18.2 41.9424 18.2 41.96 18.2 41.9776C18.2 41.9953 18.2 42.0129 18.2 42.0306C18.2 42.0482 18.2 42.0659 18.2 42.0836C18.2 42.1013 18.2 42.119 18.2 42.1367C18.2 42.1544 18.2 42.1721 18.2 42.1899C18.2 42.2077 18.2 42.2254 18.2 42.2432C18.2 42.261 18.2 42.2788 18.2 42.2966C18.2 42.3144 18.2 42.3322 18.2 42.3501C18.2 42.3679 18.2 42.3858 18.2 42.4037C18.2 42.4215 18.2 42.4394 18.2 42.4573C18.2 42.4752 18.2 42.4931 18.2 42.5111C18.2 42.529 18.2 42.547 18.2 42.5649C18.2 42.5829 18.2 42.6009 18.2 42.6189C18.2 42.6368 18.2 42.6549 18.2 42.6729C18.2 42.6909 18.2 42.7089 18.2 42.727C18.2 42.745 18.2 42.7631 18.2 42.7812C18.2 42.7992 18.2 42.8173 18.2 42.8354C18.2 42.8535 18.2 42.8717 18.2 42.8898C18.2 42.9079 18.2 42.9261 18.2 42.9442C18.2 42.9624 18.2 42.9806 18.2 42.9987C18.2 43.0169 18.2 43.0351 18.2 43.0533C18.2 43.0715 18.2 43.0898 18.2 43.108C18.2 43.1262 18.2 43.1445 18.2 43.1628C18.2 43.181 18.2 43.1993 18.2 43.2176C18.2 43.2359 18.2 43.2542 18.2 43.2725C18.2 43.2908 18.2 43.3091 18.2 43.3275C18.2 43.3458 18.2 43.3642 18.2 43.3825C18.2 43.4009 18.2 43.4193 18.2 43.4376C18.2 43.456 18.2 43.4744 18.2 43.4928C18.2 43.5112 18.2 43.5297 18.2 43.5481C18.2 43.5665 18.2 43.585 18.2 43.6034C18.2 43.6219 18.2 43.6404 18.2 43.6588C18.2 43.6773 18.2 43.6958 18.2 43.7143C18.2 43.7328 18.2 43.7513 18.2 43.7699C18.2 43.7884 18.2 43.8069 18.2 43.8255C18.2 43.844 18.2 43.8626 18.2 43.8811C18.2 43.8997 18.2 43.9183 18.2 43.9369C18.2 43.9555 18.2 43.9741 18.2 43.9927C18.2 44.0113 18.2 44.0299 18.2 44.0485C18.2 44.0672 18.2 44.0858 18.2 44.1045C18.2 44.1231 18.2 44.1418 18.2 44.1604C18.2 44.1791 18.2 44.1978 18.2 44.2165C18.2 44.2352 18.2 44.2539 18.2 44.2726C18.2 44.2913 18.2 44.31 18.2 44.3287C18.2 44.3475 18.2 44.3662 18.2 44.3849C18.2 44.4037 18.2 44.4224 18.2 44.4412C18.2 44.46 18.2 44.4788 18.2 44.4975C18.2 44.5163 18.2 44.5351 18.2 44.5539C18.2 44.5727 18.2 44.5915 18.2 44.6103C18.2 44.6292 18.2 44.648 18.2 44.6668C18.2 44.6857 18.2 44.7045 18.2 44.7234C18.2 44.7422 18.2 44.7611 18.2 44.7799C18.2 44.7988 18.2 44.8177 18.2 44.8366C18.2 44.8554 18.2 44.8743 18.2 44.8932C18.2 44.9121 18.2 44.931 18.2 44.95C18.2 44.9689 18.2 44.9878 18.2 45.0067C18.2 45.0257 18.2 45.0446 18.2 45.0635C18.2 45.0825 18.2 45.1014 18.2 45.1204C18.2 45.1394 18.2 45.1583 18.2 45.1773C18.2 45.1963 18.2 45.2153 18.2 45.2342C18.2 45.2532 18.2 45.2722 18.2 45.2912C18.2 45.3102 18.2 45.3292 18.2 45.3483C18.2 45.3673 18.2 45.3863 18.2 45.4053C18.2 45.4243 18.2 45.4434 18.2 45.4624C18.2 45.4815 18.2 45.5005 18.2 45.5196C18.2 45.5386 18.2 45.5577 18.2 45.5767C18.2 45.5958 18.2 45.6149 18.2 45.6339C18.2 45.653 18.2 45.6721 18.2 45.6912C18.2 45.7103 18.2 45.7294 18.2 45.7485C18.2 45.7676 18.2 45.7867 18.2 45.8058C18.2 45.8249 18.2 45.844 18.2 45.8631C18.2 45.8822 18.2 45.9013 18.2 45.9205C18.2 45.9396 18.2 45.9587 18.2 45.9779C18.2 45.997 18.2 46.0162 18.2 46.0353C18.2 46.0544 18.2 46.0736 18.2 46.0928C18.2 46.1119 18.2 46.1311 18.2 46.1502C18.2 46.1694 18.2 46.1886 18.2 46.2077C18.2 46.2269 18.2 46.2461 18.2 46.2653C18.2 46.2845 18.2 46.3036 18.2 46.3228C18.2 46.342 18.2 46.3612 18.2 46.3804C18.2 46.3996 18.2 46.4188 18.2 46.438C18.2 46.4572 18.2 46.4764 18.2 46.4956C18.2 46.5148 18.2 46.534 18.2 46.5533C18.2 46.5725 18.2 46.5917 18.2 46.6109C18.2 46.6301 18.2 46.6494 18.2 46.6686C18.2 46.6878 18.2 46.7071 18.2 46.7263C18.2 46.7455 18.2 46.7648 18.2 46.784C18.2 46.8032 18.2 46.8225 18.2 46.8417C18.2 46.861 18.2 46.8802 18.2 46.8995C18.2 46.9187 18.2 46.938 18.2 46.9572C18.2 46.9765 18.2 46.9957 18.2 47.015C18.2 47.0342 18.2 47.0535 18.2 47.0727C18.2 47.092 18.2 47.1113 18.2 47.1305C18.2 47.1498 18.2 47.1691 18.2 47.1883C18.2 47.2076 18.2 47.2269 18.2 47.2461C18.2 47.2654 18.2 47.2847 18.2 47.3039C18.2 47.3232 18.2 47.3425 18.2 47.3617C18.2 47.381 18.2 47.4003 18.2 47.4196C18.2 47.4388 18.2 47.4581 18.2 47.4774C18.2 47.4967 18.2 47.5159 18.2 47.5352C18.2 47.5545 18.2 47.5738 18.2 47.593C18.2 47.6123 18.2 47.6316 18.2 47.6509C18.2 47.6701 18.2 47.6894 18.2 47.7087C18.2 47.728 18.2 47.7472 18.2 47.7665C18.2 47.7858 18.2 47.8051 18.2 47.8243C18.2 47.8436 18.2 47.8629 18.2 47.8822C18.2 47.9014 18.2 47.9207 18.2 47.94C18.2 47.9593 18.2 47.9785 18.2 47.9978C18.2 48.0171 18.2 48.0364 18.2 48.0556C18.2 48.0749 18.2 48.0942 18.2 48.1134C18.2 48.1327 18.2 48.152 18.2 48.1712C18.2 48.1905 18.2 48.2098 18.2 48.229C18.2 48.2483 18.2 48.2675 18.2 48.2868C18.2 48.3061 18.2 48.3253 18.2 48.3446C18.2 48.3638 18.2 48.3831 18.2 48.4023C18.2 48.4216 18.2 48.4408 18.2 48.4601C18.2 48.4793 18.2 48.4986 18.2 48.5178C18.2 48.537 18.2 48.5563 18.2 48.5755C18.2 48.5948 18.2 48.614 18.2 48.6332C18.2 48.6525 18.2 48.6717 18.2 48.6909C18.2 48.7101 18.2 48.7294 18.2 48.7486C18.2 48.7678 18.2 48.787 18.2 48.8062C18.2 48.8255 18.2 48.8447 18.2 48.8639C18.2 48.8831 18.2 48.9023 18.2 48.9215C18.2 48.9407 18.2 48.9599 18.2 48.9791C18.2 48.9983 18.2 49.0175 18.2 49.0366C18.2 49.0558 18.2 49.075 18.2 49.0942C18.2 49.1134 18.2 49.1326 18.2 49.1517C18.2 49.1709 18.2 49.1901 18.2 49.2092C18.2 49.2284 18.2 49.2475 18.2 49.2667C18.2 49.2859 18.2 49.305 18.2 49.3241C18.2 49.3433 18.2 49.3624 18.2 49.3816C18.2 49.4007 18.2 49.4198 18.2 49.439C18.2 49.4581 18.2 49.4772 18.2 49.4963C18.2 49.5154 18.2 49.5345 18.2 49.5536C18.2 49.5728 18.2 49.5919 18.2 49.6109C18.2 49.63 18.2 49.6491 18.2 49.6682C18.2 49.6873 18.2 49.7064 18.2 49.7255C18.2 49.7445 18.2 49.7636 18.2 49.7826C18.2 49.8017 18.2 49.8208 18.2 49.8398C18.2 49.8589 18.2 49.8779 18.2 49.8969C18.2 49.916 18.2 49.935 18.2 49.954C18.2 49.9731 18.2 49.9921 18.2 50.0111C18.2 50.0301 18.2 50.0491 18.2 50.0681C18.2 50.0871 18.2 50.1061 18.2 50.1251C18.2 50.1441 18.2 50.163 18.2 50.182C18.2 50.201 18.2 50.2199 18.2 50.2389C18.2 50.2578 18.2 50.2768 18.2 50.2957C18.2 50.3147 18.2 50.3336 18.2 50.3525C18.2 50.3715 18.2 50.3904 18.2 50.4093C18.2 50.4282 18.2 50.4471 18.2 50.466C18.2 50.4849 18.2 50.5038 18.2 50.5227C18.2 50.5416 18.2 50.5604 18.2 50.5793C18.2 50.5982 18.2 50.617 18.2 50.6359C18.2 50.6547 18.2 50.6735 18.2 50.6924C18.2 50.7112 18.2 50.73 18.2 50.7488C18.2 50.7677 18.2 50.7865 18.2 50.8053C18.2 50.8241 18.2 50.8428 18.2 50.8616C18.2 50.8804 18.2 50.8992 18.2 50.9179C18.2 50.9367 18.2 50.9554 18.2 50.9742C18.2 50.9929 18.2 51.0117 18.2 51.0304C18.2 51.0491 18.2 51.0678 18.2 51.0865C18.2 51.1052 18.2 51.1239 18.2 51.1426C18.2 51.1613 18.2 51.18 18.2 51.1986C18.2 51.2173 18.2 51.236 18.2 51.2546C18.2 51.2732 18.2 51.2919 18.2 51.3105C18.2 51.3291 18.2 51.3477 18.2 51.3663C18.2 51.385 18.2 51.4035 18.2 51.4221C18.2 51.4407 18.2 51.4593 18.2 51.4778C18.2 51.4964 18.2 51.515 18.2 51.5335C18.2 51.552 18.2 51.5706 18.2 51.5891C18.2 51.6076 18.2 51.6261 18.2 51.6446C18.2 51.6631 18.2 51.6816 18.2 51.7001C18.2 51.7185 18.2 51.737 18.2 51.7555C18.2 51.7739 18.2 51.7923 18.2 51.8108C18.2 51.8292 18.2 51.8476 18.2 51.866C18.2 51.8844 18.2 51.9028 18.2 51.9212C18.2 51.9396 18.2 51.9579 18.2 51.9763C18.2 51.9947 18.2 52.013 18.2 52.0313C18.2 52.0497 18.2 52.068 18.2 52.0863C18.2 52.1046 18.2 52.1229 18.2 52.1412C18.2 52.1595 18.2 52.1777 18.2 52.196C18.2 52.2142 18.2 52.2325 18.2 52.2507C18.2 52.2689 18.2 52.2872 18.2 52.3054C18.2 52.3236 18.2 52.3418 18.2 52.3599C18.2 52.3781 18.2 52.3963 18.2 52.4144C18.2 52.4326 18.2 52.4507 18.2 52.4688C18.2 52.487 18.2 52.5051 18.2 52.5232C18.2 52.5413 18.2 52.5594 18.2 52.5774C18.2 52.5955 18.2 52.6135 18.2 52.6316C18.2 52.6496 18.2 52.6677 18.2 52.6857C18.2 52.7037 18.2 52.7217 18.2 52.7397C18.2 52.7576 18.2 52.7756 18.2 52.7936C18.2 52.8115 18.2 52.8295 18.2 52.8474C18.2 52.8653 18.2 52.8832 18.2 52.9011C18.2 52.919 18.2 52.9369 18.2 52.9548C18.2 52.9726 18.2 52.9905 18.2 53.0083C18.2 53.0262 18.2 53.044 18.2 53.0618C18.2 53.0796 18.2 53.0974 18.2 53.1151C18.2 53.1329 18.2 53.1507 18.2 53.1684C18.2 53.1862 18.2 53.2039 18.2 53.2216C18.2 53.2393 18.2 53.257 18.2 53.2747C18.2 53.2924 18.2 53.31 18.2 53.3277C18.2 53.3453 18.2 53.363 18.2 53.3806C18.2 53.3982 18.2 53.4158 18.2 53.4334C18.2 53.4509 18.2 53.4685 18.2 53.4861C18.2 53.5036 18.2 53.5211 18.2 53.5387C18.2 53.5562 18.2 53.5737 18.2 53.5911C18.2 53.6086 18.2 53.6261 18.2 53.6435C18.2 53.661 18.2 53.6784 18.2 53.6958C18.2 53.7132 18.2 53.7306 18.2 53.748C18.2 53.7654 18.2 53.7828 18.2 53.8001C18.2 53.8174 18.2 53.8348 18.2 53.8521C18.2 53.8694 18.2 53.8867 18.2 53.9039C18.2 53.9212 18.2 53.9385 18.2 53.9557C18.2 53.9729 18.2 53.9902 18.2 54.0074C18.2 54.0246 18.2 54.0417 18.2 54.0589C18.2 54.0761 18.2 54.0932 18.2 54.1103C18.2 54.1274 18.2 54.1446 18.2 54.1616C18.2 54.1787 18.2 54.1958 18.2 54.2128C18.2 54.2299 18.2 54.2469 18.2 54.2639C18.2 54.281 18.2 54.2979 18.2 54.3149C18.2 54.3319 18.2 54.3489 18.2 54.3658C18.2 54.3827 18.2 54.3996 18.2 54.4165C18.2 54.4334 18.2 54.4503 18.2 54.4672C18.2 54.484 18.2 54.5009 18.2 54.5177C18.2 54.5345 18.2 54.5513 18.2 54.5681C18.2 54.5848 18.2 54.6016 18.2 54.6183C18.2 54.6351 18.2 54.6518 18.2 54.6685C18.2 54.6852 18.2 54.7019 18.2 54.7185C18.2 54.7352 18.2 54.7518 18.2 54.7684C18.2 54.785 18.2 54.8016 18.2 54.8182C18.2 54.8348 18.2 54.8513 18.2 54.8679C18.2 54.8844 18.2 54.9009 18.2 54.9174C18.2 54.9339 18.2 54.9503 18.2 54.9668C18.2 54.9832 18.2 54.9997 18.2 55.0161C18.2 55.0325 18.2 55.0488 18.2 55.0652C18.2 55.0816 18.2 55.0979 18.2 55.1142C18.2 55.1305 18.2 55.1468 18.2 55.1631C18.2 55.1794 18.2 55.1956 18.2 55.2119C18.2 55.2281 18.2 55.2443 18.2 55.2605C18.2 55.2767 18.2 55.2928 18.2 55.309C18.2 55.3251 18.2 55.3412 18.2 55.3573C18.2 55.3734 18.2 55.3895 18.2 55.4055C18.2 55.4216 18.2 55.4376 18.2 55.4536C18.2 55.4696 18.2 55.4856 18.2 55.5015C18.2 55.5175 18.2 55.5334 18.2 55.5493C18.2 55.5653 18.2 55.5811 18.2 55.597C18.2 55.6129 18.2 55.6287 18.2 55.6445C18.2 55.6603 18.2 55.6761 18.2 55.6919C18.2 55.7077 18.2 55.7234 18.2 55.7391C18.2 55.7549 18.2 55.7706 18.2 55.7862C18.2 55.8019 18.2 55.8176 18.2 55.8332C18.2 55.8488 18.2 55.8644 18.2 55.88C18.2 55.8956 18.2 55.9111 18.2 55.9266C18.2 55.9422 18.2 55.9577 18.2 55.9732C18.2 55.9886 18.2 56.0041 18.2 56.0195C18.2 56.0349 18.2 56.0504 18.2 56.0657C18.2 56.0811 18.2 56.0965 18.2 56.1118C18.2 56.1271 18.2 56.1424 18.2 56.1577C18.2 56.173 18.2 56.1882 18.2 56.2035C18.2 56.2187 18.2 56.2339 18.2 56.2491C18.2 56.2642 18.2 56.2794 18.2 56.2945C18.2 56.3096 18.2 56.3247 18.2 56.3398C18.2 56.3549 18.2 56.3699 18.2 56.385C18.2 56.4 18.2 56.415 18.2 56.4299C18.2 56.4449 18.2 56.4599 18.2 56.4748C18.2 56.4897 18.2 56.5046 18.2 56.5194C18.2 56.5343 18.2 56.5491 18.2 56.5639C18.2 56.5788 18.2 56.5935 18.2 56.6083C18.2 56.623 18.2 56.6378 18.2 56.6525C18.2 56.6672 18.2 56.6818 18.2 56.6965C18.2 56.7111 18.2 56.7258 18.2 56.7403C18.2 56.7549 18.2 56.7695 18.2 56.784C18.2 56.7986 18.2 56.8131 18.2 56.8276C18.2 56.842 18.2 56.8565 18.2 56.8709C18.2 56.8854 18.2 56.8998 18.2 56.9141C18.2 56.9285 18.2 56.9428 18.2 56.9571C18.2 56.9715 18.2 56.9857 18.2 57H19.8C19.8 56.9857 19.8 56.9715 19.8 56.9571C19.8 56.9428 19.8 56.9285 19.8 56.9141C19.8 56.8998 19.8 56.8854 19.8 56.8709C19.8 56.8565 19.8 56.842 19.8 56.8276C19.8 56.8131 19.8 56.7986 19.8 56.784C19.8 56.7695 19.8 56.7549 19.8 56.7403C19.8 56.7258 19.8 56.7111 19.8 56.6965C19.8 56.6818 19.8 56.6672 19.8 56.6525C19.8 56.6378 19.8 56.623 19.8 56.6083C19.8 56.5935 19.8 56.5788 19.8 56.5639C19.8 56.5491 19.8 56.5343 19.8 56.5194C19.8 56.5046 19.8 56.4897 19.8 56.4748C19.8 56.4599 19.8 56.4449 19.8 56.4299C19.8 56.415 19.8 56.4 19.8 56.385C19.8 56.3699 19.8 56.3549 19.8 56.3398C19.8 56.3247 19.8 56.3096 19.8 56.2945C19.8 56.2794 19.8 56.2642 19.8 56.2491C19.8 56.2339 19.8 56.2187 19.8 56.2035C19.8 56.1882 19.8 56.173 19.8 56.1577C19.8 56.1424 19.8 56.1271 19.8 56.1118C19.8 56.0965 19.8 56.0811 19.8 56.0657C19.8 56.0504 19.8 56.0349 19.8 56.0195C19.8 56.0041 19.8 55.9886 19.8 55.9732C19.8 55.9577 19.8 55.9422 19.8 55.9266C19.8 55.9111 19.8 55.8956 19.8 55.88C19.8 55.8644 19.8 55.8488 19.8 55.8332C19.8 55.8176 19.8 55.8019 19.8 55.7862C19.8 55.7706 19.8 55.7549 19.8 55.7391C19.8 55.7234 19.8 55.7077 19.8 55.6919C19.8 55.6761 19.8 55.6603 19.8 55.6445C19.8 55.6287 19.8 55.6129 19.8 55.597C19.8 55.5811 19.8 55.5653 19.8 55.5493C19.8 55.5334 19.8 55.5175 19.8 55.5015C19.8 55.4856 19.8 55.4696 19.8 55.4536C19.8 55.4376 19.8 55.4216 19.8 55.4055C19.8 55.3895 19.8 55.3734 19.8 55.3573C19.8 55.3412 19.8 55.3251 19.8 55.309C19.8 55.2928 19.8 55.2767 19.8 55.2605C19.8 55.2443 19.8 55.2281 19.8 55.2119C19.8 55.1956 19.8 55.1794 19.8 55.1631C19.8 55.1468 19.8 55.1305 19.8 55.1142C19.8 55.0979 19.8 55.0816 19.8 55.0652C19.8 55.0488 19.8 55.0325 19.8 55.0161C19.8 54.9997 19.8 54.9832 19.8 54.9668C19.8 54.9503 19.8 54.9339 19.8 54.9174C19.8 54.9009 19.8 54.8844 19.8 54.8679C19.8 54.8513 19.8 54.8348 19.8 54.8182C19.8 54.8016 19.8 54.785 19.8 54.7684C19.8 54.7518 19.8 54.7352 19.8 54.7185C19.8 54.7019 19.8 54.6852 19.8 54.6685C19.8 54.6518 19.8 54.6351 19.8 54.6183C19.8 54.6016 19.8 54.5848 19.8 54.5681C19.8 54.5513 19.8 54.5345 19.8 54.5177C19.8 54.5009 19.8 54.484 19.8 54.4672C19.8 54.4503 19.8 54.4334 19.8 54.4165C19.8 54.3996 19.8 54.3827 19.8 54.3658C19.8 54.3489 19.8 54.3319 19.8 54.3149C19.8 54.2979 19.8 54.281 19.8 54.2639C19.8 54.2469 19.8 54.2299 19.8 54.2128C19.8 54.1958 19.8 54.1787 19.8 54.1616C19.8 54.1446 19.8 54.1274 19.8 54.1103C19.8 54.0932 19.8 54.0761 19.8 54.0589C19.8 54.0417 19.8 54.0246 19.8 54.0074C19.8 53.9902 19.8 53.9729 19.8 53.9557C19.8 53.9385 19.8 53.9212 19.8 53.9039C19.8 53.8867 19.8 53.8694 19.8 53.8521C19.8 53.8348 19.8 53.8174 19.8 53.8001C19.8 53.7828 19.8 53.7654 19.8 53.748C19.8 53.7306 19.8 53.7132 19.8 53.6958C19.8 53.6784 19.8 53.661 19.8 53.6435C19.8 53.6261 19.8 53.6086 19.8 53.5911C19.8 53.5737 19.8 53.5562 19.8 53.5387C19.8 53.5211 19.8 53.5036 19.8 53.4861C19.8 53.4685 19.8 53.4509 19.8 53.4334C19.8 53.4158 19.8 53.3982 19.8 53.3806C19.8 53.363 19.8 53.3453 19.8 53.3277C19.8 53.31 19.8 53.2924 19.8 53.2747C19.8 53.257 19.8 53.2393 19.8 53.2216C19.8 53.2039 19.8 53.1862 19.8 53.1684C19.8 53.1507 19.8 53.1329 19.8 53.1151C19.8 53.0974 19.8 53.0796 19.8 53.0618C19.8 53.044 19.8 53.0262 19.8 53.0083C19.8 52.9905 19.8 52.9726 19.8 52.9548C19.8 52.9369 19.8 52.919 19.8 52.9011C19.8 52.8832 19.8 52.8653 19.8 52.8474C19.8 52.8295 19.8 52.8115 19.8 52.7936C19.8 52.7756 19.8 52.7576 19.8 52.7397C19.8 52.7217 19.8 52.7037 19.8 52.6857C19.8 52.6677 19.8 52.6496 19.8 52.6316C19.8 52.6135 19.8 52.5955 19.8 52.5774C19.8 52.5594 19.8 52.5413 19.8 52.5232C19.8 52.5051 19.8 52.487 19.8 52.4688C19.8 52.4507 19.8 52.4326 19.8 52.4144C19.8 52.3963 19.8 52.3781 19.8 52.3599C19.8 52.3418 19.8 52.3236 19.8 52.3054C19.8 52.2872 19.8 52.2689 19.8 52.2507C19.8 52.2325 19.8 52.2142 19.8 52.196C19.8 52.1777 19.8 52.1595 19.8 52.1412C19.8 52.1229 19.8 52.1046 19.8 52.0863C19.8 52.068 19.8 52.0497 19.8 52.0313C19.8 52.013 19.8 51.9947 19.8 51.9763C19.8 51.9579 19.8 51.9396 19.8 51.9212C19.8 51.9028 19.8 51.8844 19.8 51.866C19.8 51.8476 19.8 51.8292 19.8 51.8108C19.8 51.7923 19.8 51.7739 19.8 51.7555C19.8 51.737 19.8 51.7185 19.8 51.7001C19.8 51.6816 19.8 51.6631 19.8 51.6446C19.8 51.6261 19.8 51.6076 19.8 51.5891C19.8 51.5706 19.8 51.552 19.8 51.5335C19.8 51.515 19.8 51.4964 19.8 51.4778C19.8 51.4593 19.8 51.4407 19.8 51.4221C19.8 51.4035 19.8 51.385 19.8 51.3663C19.8 51.3477 19.8 51.3291 19.8 51.3105C19.8 51.2919 19.8 51.2732 19.8 51.2546C19.8 51.236 19.8 51.2173 19.8 51.1986C19.8 51.18 19.8 51.1613 19.8 51.1426C19.8 51.1239 19.8 51.1052 19.8 51.0865C19.8 51.0678 19.8 51.0491 19.8 51.0304C19.8 51.0117 19.8 50.9929 19.8 50.9742C19.8 50.9554 19.8 50.9367 19.8 50.9179C19.8 50.8992 19.8 50.8804 19.8 50.8616C19.8 50.8428 19.8 50.8241 19.8 50.8053C19.8 50.7865 19.8 50.7677 19.8 50.7488C19.8 50.73 19.8 50.7112 19.8 50.6924C19.8 50.6735 19.8 50.6547 19.8 50.6359C19.8 50.617 19.8 50.5982 19.8 50.5793C19.8 50.5604 19.8 50.5416 19.8 50.5227C19.8 50.5038 19.8 50.4849 19.8 50.466C19.8 50.4471 19.8 50.4282 19.8 50.4093C19.8 50.3904 19.8 50.3715 19.8 50.3525C19.8 50.3336 19.8 50.3147 19.8 50.2957C19.8 50.2768 19.8 50.2578 19.8 50.2389C19.8 50.2199 19.8 50.201 19.8 50.182C19.8 50.163 19.8 50.1441 19.8 50.1251C19.8 50.1061 19.8 50.0871 19.8 50.0681C19.8 50.0491 19.8 50.0301 19.8 50.0111C19.8 49.9921 19.8 49.9731 19.8 49.954C19.8 49.935 19.8 49.916 19.8 49.8969C19.8 49.8779 19.8 49.8589 19.8 49.8398C19.8 49.8208 19.8 49.8017 19.8 49.7826C19.8 49.7636 19.8 49.7445 19.8 49.7255C19.8 49.7064 19.8 49.6873 19.8 49.6682C19.8 49.6491 19.8 49.63 19.8 49.6109C19.8 49.5919 19.8 49.5728 19.8 49.5536C19.8 49.5345 19.8 49.5154 19.8 49.4963C19.8 49.4772 19.8 49.4581 19.8 49.439C19.8 49.4198 19.8 49.4007 19.8 49.3816C19.8 49.3624 19.8 49.3433 19.8 49.3241C19.8 49.305 19.8 49.2859 19.8 49.2667C19.8 49.2475 19.8 49.2284 19.8 49.2092C19.8 49.1901 19.8 49.1709 19.8 49.1517C19.8 49.1326 19.8 49.1134 19.8 49.0942C19.8 49.075 19.8 49.0558 19.8 49.0366C19.8 49.0175 19.8 48.9983 19.8 48.9791C19.8 48.9599 19.8 48.9407 19.8 48.9215C19.8 48.9023 19.8 48.8831 19.8 48.8639C19.8 48.8447 19.8 48.8255 19.8 48.8062C19.8 48.787 19.8 48.7678 19.8 48.7486C19.8 48.7294 19.8 48.7101 19.8 48.6909C19.8 48.6717 19.8 48.6525 19.8 48.6332C19.8 48.614 19.8 48.5948 19.8 48.5755C19.8 48.5563 19.8 48.537 19.8 48.5178C19.8 48.4986 19.8 48.4793 19.8 48.4601C19.8 48.4408 19.8 48.4216 19.8 48.4023C19.8 48.3831 19.8 48.3638 19.8 48.3446C19.8 48.3253 19.8 48.3061 19.8 48.2868C19.8 48.2675 19.8 48.2483 19.8 48.229C19.8 48.2098 19.8 48.1905 19.8 48.1712C19.8 48.152 19.8 48.1327 19.8 48.1134C19.8 48.0942 19.8 48.0749 19.8 48.0556C19.8 48.0364 19.8 48.0171 19.8 47.9978C19.8 47.9785 19.8 47.9593 19.8 47.94C19.8 47.9207 19.8 47.9014 19.8 47.8822C19.8 47.8629 19.8 47.8436 19.8 47.8243C19.8 47.8051 19.8 47.7858 19.8 47.7665C19.8 47.7472 19.8 47.728 19.8 47.7087C19.8 47.6894 19.8 47.6701 19.8 47.6509C19.8 47.6316 19.8 47.6123 19.8 47.593C19.8 47.5738 19.8 47.5545 19.8 47.5352C19.8 47.5159 19.8 47.4967 19.8 47.4774C19.8 47.4581 19.8 47.4388 19.8 47.4196C19.8 47.4003 19.8 47.381 19.8 47.3617C19.8 47.3425 19.8 47.3232 19.8 47.3039C19.8 47.2847 19.8 47.2654 19.8 47.2461C19.8 47.2269 19.8 47.2076 19.8 47.1883C19.8 47.1691 19.8 47.1498 19.8 47.1305C19.8 47.1113 19.8 47.092 19.8 47.0727C19.8 47.0535 19.8 47.0342 19.8 47.015C19.8 46.9957 19.8 46.9765 19.8 46.9572C19.8 46.938 19.8 46.9187 19.8 46.8995C19.8 46.8802 19.8 46.861 19.8 46.8417C19.8 46.8225 19.8 46.8032 19.8 46.784C19.8 46.7648 19.8 46.7455 19.8 46.7263C19.8 46.7071 19.8 46.6878 19.8 46.6686C19.8 46.6494 19.8 46.6301 19.8 46.6109C19.8 46.5917 19.8 46.5725 19.8 46.5533C19.8 46.534 19.8 46.5148 19.8 46.4956C19.8 46.4764 19.8 46.4572 19.8 46.438C19.8 46.4188 19.8 46.3996 19.8 46.3804C19.8 46.3612 19.8 46.342 19.8 46.3228C19.8 46.3036 19.8 46.2845 19.8 46.2653C19.8 46.2461 19.8 46.2269 19.8 46.2077C19.8 46.1886 19.8 46.1694 19.8 46.1502C19.8 46.1311 19.8 46.1119 19.8 46.0928C19.8 46.0736 19.8 46.0544 19.8 46.0353C19.8 46.0162 19.8 45.997 19.8 45.9779C19.8 45.9587 19.8 45.9396 19.8 45.9205C19.8 45.9013 19.8 45.8822 19.8 45.8631C19.8 45.844 19.8 45.8249 19.8 45.8058C19.8 45.7867 19.8 45.7676 19.8 45.7485C19.8 45.7294 19.8 45.7103 19.8 45.6912C19.8 45.6721 19.8 45.653 19.8 45.6339C19.8 45.6149 19.8 45.5958 19.8 45.5767C19.8 45.5577 19.8 45.5386 19.8 45.5196C19.8 45.5005 19.8 45.4815 19.8 45.4624C19.8 45.4434 19.8 45.4243 19.8 45.4053C19.8 45.3863 19.8 45.3673 19.8 45.3483C19.8 45.3292 19.8 45.3102 19.8 45.2912C19.8 45.2722 19.8 45.2532 19.8 45.2342C19.8 45.2153 19.8 45.1963 19.8 45.1773C19.8 45.1583 19.8 45.1394 19.8 45.1204C19.8 45.1014 19.8 45.0825 19.8 45.0635C19.8 45.0446 19.8 45.0257 19.8 45.0067C19.8 44.9878 19.8 44.9689 19.8 44.95C19.8 44.931 19.8 44.9121 19.8 44.8932C19.8 44.8743 19.8 44.8554 19.8 44.8366C19.8 44.8177 19.8 44.7988 19.8 44.7799C19.8 44.7611 19.8 44.7422 19.8 44.7234C19.8 44.7045 19.8 44.6857 19.8 44.6668C19.8 44.648 19.8 44.6292 19.8 44.6103C19.8 44.5915 19.8 44.5727 19.8 44.5539C19.8 44.5351 19.8 44.5163 19.8 44.4975C19.8 44.4788 19.8 44.46 19.8 44.4412C19.8 44.4224 19.8 44.4037 19.8 44.3849C19.8 44.3662 19.8 44.3475 19.8 44.3287C19.8 44.31 19.8 44.2913 19.8 44.2726C19.8 44.2539 19.8 44.2352 19.8 44.2165C19.8 44.1978 19.8 44.1791 19.8 44.1604C19.8 44.1418 19.8 44.1231 19.8 44.1045C19.8 44.0858 19.8 44.0672 19.8 44.0485C19.8 44.0299 19.8 44.0113 19.8 43.9927C19.8 43.9741 19.8 43.9555 19.8 43.9369C19.8 43.9183 19.8 43.8997 19.8 43.8811C19.8 43.8626 19.8 43.844 19.8 43.8255C19.8 43.8069 19.8 43.7884 19.8 43.7699C19.8 43.7513 19.8 43.7328 19.8 43.7143C19.8 43.6958 19.8 43.6773 19.8 43.6588C19.8 43.6404 19.8 43.6219 19.8 43.6034C19.8 43.585 19.8 43.5665 19.8 43.5481C19.8 43.5297 19.8 43.5112 19.8 43.4928C19.8 43.4744 19.8 43.456 19.8 43.4376C19.8 43.4193 19.8 43.4009 19.8 43.3825C19.8 43.3642 19.8 43.3458 19.8 43.3275C19.8 43.3091 19.8 43.2908 19.8 43.2725C19.8 43.2542 19.8 43.2359 19.8 43.2176C19.8 43.1993 19.8 43.181 19.8 43.1628C19.8 43.1445 19.8 43.1262 19.8 43.108C19.8 43.0898 19.8 43.0715 19.8 43.0533C19.8 43.0351 19.8 43.0169 19.8 42.9987C19.8 42.9806 19.8 42.9624 19.8 42.9442C19.8 42.9261 19.8 42.9079 19.8 42.8898C19.8 42.8717 19.8 42.8535 19.8 42.8354C19.8 42.8173 19.8 42.7992 19.8 42.7812C19.8 42.7631 19.8 42.745 19.8 42.727C19.8 42.7089 19.8 42.6909 19.8 42.6729C19.8 42.6549 19.8 42.6368 19.8 42.6189C19.8 42.6009 19.8 42.5829 19.8 42.5649C19.8 42.547 19.8 42.529 19.8 42.5111C19.8 42.4931 19.8 42.4752 19.8 42.4573C19.8 42.4394 19.8 42.4215 19.8 42.4037C19.8 42.3858 19.8 42.3679 19.8 42.3501C19.8 42.3322 19.8 42.3144 19.8 42.2966C19.8 42.2788 19.8 42.261 19.8 42.2432C19.8 42.2254 19.8 42.2077 19.8 42.1899C19.8 42.1721 19.8 42.1544 19.8 42.1367C19.8 42.119 19.8 42.1013 19.8 42.0836C19.8 42.0659 19.8 42.0482 19.8 42.0306C19.8 42.0129 19.8 41.9953 19.8 41.9776C19.8 41.96 19.8 41.9424 19.8 41.9248C19.8 41.9072 19.8 41.8897 19.8 41.8721C19.8 41.8545 19.8 41.837 19.8 41.8195C19.8 41.802 19.8 41.7845 19.8 41.767C19.8 41.7495 19.8 41.732 19.8 41.7145C19.8 41.6971 19.8 41.6796 19.8 41.6622C19.8 41.6448 19.8 41.6274 19.8 41.61C19.8 41.5926 19.8 41.5753 19.8 41.5579C19.8 41.5406 19.8 41.5232 19.8 41.5059C19.8 41.4886 19.8 41.4713 19.8 41.454C19.8 41.4367 19.8 41.4195 19.8 41.4022C19.8 41.385 19.8 41.3677 19.8 41.3505C19.8 41.3333 19.8 41.3161 19.8 41.299C19.8 41.2818 19.8 41.2646 19.8 41.2475C19.8 41.2304 19.8 41.2133 19.8 41.1962C19.8 41.1791 19.8 41.162 19.8 41.1449C19.8 41.1279 19.8 41.1108 19.8 41.0938C19.8 41.0768 19.8 41.0598 19.8 41.0428C19.8 41.0258 19.8 41.0088 19.8 40.9919C19.8 40.9749 19.8 40.958 19.8 40.9411C19.8 40.9242 19.8 40.9073 19.8 40.8905C19.8 40.8736 19.8 40.8567 19.8 40.8399C19.8 40.8231 19.8 40.8063 19.8 40.7895C19.8 40.7727 19.8 40.7559 19.8 40.7392C19.8 40.7224 19.8 40.7057 19.8 40.689C19.8 40.6723 19.8 40.6556 19.8 40.6389C19.8 40.6223 19.8 40.6056 19.8 40.589C19.8 40.5724 19.8 40.5558 19.8 40.5392C19.8 40.5226 19.8 40.506 19.8 40.4895C19.8 40.473 19.8 40.4564 19.8 40.4399C19.8 40.4234 19.8 40.407 19.8 40.3905C19.8 40.374 19.8 40.3576 19.8 40.3412C19.8 40.3248 19.8 40.3084 19.8 40.292C19.8 40.2756 19.8 40.2593 19.8 40.243C19.8 40.2266 19.8 40.2103 19.8 40.194C19.8 40.1778 19.8 40.1615 19.8 40.1453C19.8 40.129 19.8 40.1128 19.8 40.0966C19.8 40.0804 19.8 40.0642 19.8 40.0481C19.8 40.0319 19.8 40.0158 19.8 39.9997C19.8 39.9836 19.8 39.9675 19.8 39.9514C19.8 39.9354 19.8 39.9193 19.8 39.9033C19.8 39.8873 19.8 39.8713 19.8 39.8553C19.8 39.8394 19.8 39.8234 19.8 39.8075C19.8 39.7916 19.8 39.7757 19.8 39.7598C19.8 39.7439 19.8 39.7281 19.8 39.7123C19.8 39.6964 19.8 39.6806 19.8 39.6648C19.8 39.6491 19.8 39.6333 19.8 39.6176C19.8 39.6018 19.8 39.5861 19.8 39.5704C19.8 39.5547 19.8 39.5391 19.8 39.5234C19.8 39.5078 19.8 39.4922 19.8 39.4766C19.8 39.461 19.8 39.4454 19.8 39.4299C19.8 39.4144 19.8 39.3988 19.8 39.3833C19.8 39.3679 19.8 39.3524 19.8 39.3369C19.8 39.3215 19.8 39.3061 19.8 39.2907C19.8 39.2753 19.8 39.2599 19.8 39.2446C19.8 39.2292 19.8 39.2139 19.8 39.1986C19.8 39.1833 19.8 39.1681 19.8 39.1528C19.8 39.1376 19.8 39.1224 19.8 39.1072C19.8 39.092 19.8 39.0768 19.8 39.0617C19.8 39.0466 19.8 39.0314 19.8 39.0164C19.8 39.0013 19.8 38.9862 19.8 38.9712C19.8 38.9561 19.8 38.9411 19.8 38.9262C19.8 38.9112 19.8 38.8962 19.8 38.8813C19.8 38.8664 19.8 38.8515 19.8 38.8366C19.8 38.8217 19.8 38.8068 19.8 38.792C19.8 38.7772 19.8 38.7624 19.8 38.7476C19.8 38.7329 19.8 38.7181 19.8 38.7034C19.8 38.6887 19.8 38.674 19.8 38.6593C19.8 38.6447 19.8 38.63 19.8 38.6154C19.8 38.6008 19.8 38.5863 19.8 38.5717C19.8 38.5572 19.8 38.5426 19.8 38.5281C19.8 38.5136 19.8 38.4992 19.8 38.4847C19.8 38.4703 19.8 38.4559 19.8 38.4415C19.8 38.4271 19.8 38.4128 19.8 38.3984C19.8 38.3841 19.8 38.3698 19.8 38.3555C19.8 38.3413 19.8 38.327 19.8 38.3128C19.8 38.2986 19.8 38.2844 19.8 38.2702C19.8 38.2561 19.8 38.2419 19.8 38.2278C19.8 38.2137 19.8 38.1997 19.8 38.1856C19.8 38.1716 19.8 38.1576 19.8 38.1436C19.8 38.1296 19.8 38.1157 19.8 38.1017C19.8 38.0878 19.8 38.0739 19.8 38.06C19.8 38.0462 19.8 38.0323 19.8 38.0185C19.8 38.0047 19.8 37.9909 19.8 37.9772C19.8 37.9635 19.8 37.9497 19.8 37.936C19.8 37.9224 19.8 37.9087 19.8 37.8951C19.8 37.8814 19.8 37.8678 19.8 37.8543C19.8 37.8407 19.8 37.8272 19.8 37.8137C19.8 37.8002 19.8 37.7867 19.8 37.7732C19.8 37.7598 19.8 37.7464 19.8 37.733C19.8 37.7196 19.8 37.7063 19.8 37.6929C19.8 37.6796 19.8 37.6663 19.8 37.6531C19.8 37.6398 19.8 37.6266 19.8 37.6134C19.8 37.6002 19.8 37.587 19.8 37.5739C19.8 37.5607 19.8 37.5476 19.8 37.5346C19.8 37.5215 19.8 37.5084 19.8 37.4954C19.8 37.4824 19.8 37.4695 19.8 37.4565C19.8 37.4436 19.8 37.4306 19.8 37.4178C19.8 37.4049 19.8 37.392 19.8 37.3792C19.8 37.3664 19.8 37.3536 19.8 37.3409C19.8 37.3281 19.8 37.3154 19.8 37.3027C19.8 37.29 19.8 37.2774 19.8 37.2647C19.8 37.2521 19.8 37.2395 19.8 37.227C19.8 37.2144 19.8 37.2019 19.8 37.1894C19.8 37.1769 19.8 37.1645 19.8 37.152C19.8 37.1396 19.8 37.1272 19.8 37.1149C19.8 37.1025 19.8 37.0902 19.8 37.0779C19.8 37.0656 19.8 37.0533 19.8 37.0411C19.8 37.0289 19.8 37.0167 19.8 37.0045C19.8 36.9924 19.8 36.9803 19.8 36.9682C19.8 36.9561 19.8 36.944 19.8 36.932C19.8 36.92 19.8 36.908 19.8 36.8961C19.8 36.8841 19.8 36.8722 19.8 36.8603C19.8 36.8484 19.8 36.8366 19.8 36.8248C19.8 36.813 19.8 36.8012 19.8 36.7894C19.8 36.7777 19.8 36.766 19.8 36.7543C19.8 36.7426 19.8 36.731 19.8 36.7194C19.8 36.7078 19.8 36.6962 19.8 36.6847C19.8 36.6731 19.8 36.6616 19.8 36.6502C19.8 36.6387 19.8 36.6273 19.8 36.6159C19.8 36.6045 19.8 36.5931 19.8 36.5818C19.8 36.5705 19.8 36.5592 19.8 36.548C19.8 36.5367 19.8 36.5255 19.8 36.5143C19.8 36.5032 19.8 36.492 19.8 36.4809C19.8 36.4698 19.8 36.4587 19.8 36.4477C19.8 36.4367 19.8 36.4257 19.8 36.4147C19.8 36.4038 19.8 36.3928 19.8 36.382C19.8 36.3711 19.8 36.3602 19.8 36.3494C19.8 36.3386 19.8 36.3278 19.8 36.3171C19.8 36.3064 19.8 36.2957 19.8 36.285C19.8 36.2743 19.8 36.2637 19.8 36.2531C19.8 36.2425 19.8 36.232 19.8 36.2215C19.8 36.2109 19.8 36.2005 19.8 36.19C19.8 36.1796 19.8 36.1692 19.8 36.1588C19.8 36.1485 19.8 36.1381 19.8 36.1278C19.8 36.1176 19.8 36.1073 19.8 36.0971C19.8 36.0869 19.8 36.0767 19.8 36.0666C19.8 36.0564 19.8 36.0464 19.8 36.0363C19.8 36.0262 19.8 36.0162 19.8 36.0062C19.8 35.9963 19.8 35.9863 19.8 35.9764C19.8 35.9665 19.8 35.9566 19.8 35.9468C19.8 35.937 19.8 35.9272 19.8 35.9175C19.8 35.9077 19.8 35.898 19.8 35.8883C19.8 35.8787 19.8 35.869 19.8 35.8595C19.8 35.8499 19.8 35.8403 19.8 35.8308C19.8 35.8213 19.8 35.8118 19.8 35.8024C19.8 35.793 19.8 35.7836 19.8 35.7742C19.8 35.7649 19.8 35.7556 19.8 35.7463C19.8 35.737 19.8 35.7278 19.8 35.7186C19.8 35.7094 19.8 35.7003 19.8 35.6911C19.8 35.682 19.8 35.673 19.8 35.6639C19.8 35.6549 19.8 35.6459 19.8 35.637C19.8 35.628 19.8 35.6191 19.8 35.6102C19.8 35.6014 19.8 35.5926 19.8 35.5838C19.8 35.575 19.8 35.5662 19.8 35.5575C19.8 35.5488 19.8 35.5402 19.8 35.5316C19.8 35.5229 19.8 35.5144 19.8 35.5058C19.8 35.4973 19.8 35.4888 19.8 35.4803C19.8 35.4719 19.8 35.4635 19.8 35.4551C19.8 35.4467 19.8 35.4384 19.8 35.4301C19.8 35.4219 19.8 35.4136 19.8 35.4054C19.8 35.3972 19.8 35.389 19.8 35.3809C19.8 35.3728 19.8 35.3647 19.8 35.3567C19.8 35.3487 19.8 35.3407 19.8 35.3327C19.8 35.3248 19.8 35.3169 19.8 35.309C19.8 35.3012 19.8 35.2934 19.8 35.2856C19.8 35.2778 19.8 35.2701 19.8 35.2624C19.8 35.2547 19.8 35.2471 19.8 35.2395C19.8 35.2319 19.8 35.2243 19.8 35.2168C19.8 35.2093 19.8 35.2018 19.8 35.1944C19.8 35.1869 19.8 35.1796 19.8 35.1722C19.8 35.1649 19.8 35.1576 19.8 35.1503C19.8 35.1431 19.8 35.1359 19.8 35.1287C19.8 35.1215 19.8 35.1144 19.8 35.1073C19.8 35.1003 19.8 35.0932 19.8 35.0862C19.8 35.0793 19.8 35.0723 19.8 35.0654C19.8 35.0585 19.8 35.0517 19.8 35.0449C19.8 35.038 19.8 35.0313 19.8 35.0246C19.8 35.0178 19.8 35.0112 19.8 35.0045C19.8 34.9979 19.8 34.9913 19.8 34.9848C19.8 34.9783 19.8 34.9718 19.8 34.9653C19.8 34.9589 19.8 34.9525 19.8 34.9461C19.8 34.9397 19.8 34.9334 19.8 34.9272C19.8 34.9209 19.8 34.9147 19.8 34.9085C19.8 34.9023 19.8 34.8962 19.8 34.8901C19.8 34.884 19.8 34.878 19.8 34.872C19.8 34.866 19.8 34.8601 19.8 34.8542C19.8 34.8483 19.8 34.8424 19.8 34.8366C19.8 34.8308 19.8 34.8251 19.8 34.8194C19.8 34.8137 19.8 34.808 19.8 34.8024C19.8 34.7968 19.8 34.7912 19.8 34.7857C19.8 34.7801 19.8 34.7747 19.8 34.7692C19.8 34.7638 19.8 34.7584 19.8 34.7531C19.8 34.7478 19.8 34.7425 19.8 34.7372C19.8 34.732 19.8 34.7268 19.8 34.7217C19.8 34.7165 19.8 34.7114 19.8 34.7064C19.8 34.7013 19.8 34.6963 19.8 34.6914C19.8 34.6864 19.8 34.6815 19.8 34.6767C19.8 34.6718 19.8 34.667 19.8 34.6622C19.8 34.6575 19.8 34.6528 19.8 34.6481C19.8 34.6434 19.8 34.6388 19.8 34.6343C19.8 34.6297 19.8 34.6252 19.8 34.6207C19.8 34.6162 19.8 34.6118 19.8 34.6074C19.8 34.6031 19.8 34.5987 19.8 34.5945C19.8 34.5902 19.8 34.586 19.8 34.5818C19.8 34.5776 19.8 34.5735 19.8 34.5694C19.8 34.5654 19.8 34.5613 19.8 34.5574C19.8 34.5534 19.8 34.5494 19.8 34.5456C19.8 34.5417 19.8 34.5379 19.8 34.5341C19.8 34.5303 19.8 34.5266 19.8 34.5229C19.8 34.5192 19.8 34.5156 19.8 34.512C19.8 34.5084 19.8 34.5049 19.8 34.5014C19.8 34.498 19.8 34.4945 19.8 34.4912C19.8 34.4878 19.8 34.4845 19.8 34.4812C19.8 34.4779 19.8 34.4747 19.8 34.4715C19.8 34.4684 19.8 34.4652 19.8 34.4622C19.8 34.4591 19.8 34.4561 19.8 34.4531C19.8 34.4501 19.8 34.4472 19.8 34.4444C19.8 34.4415 19.8 34.4387 19.8 34.4359C19.8 34.4332 19.8 34.4304 19.8 34.4278C19.8 34.4251 19.8 34.4225 19.8 34.42C19.8 34.4174 19.8 34.4149 19.8 34.4124C19.8 34.41 19.8 34.4076 19.8 34.4052C19.8 34.4029 19.8 34.4006 19.8 34.3984C19.8 34.3961 19.8 34.3939 19.8 34.3918C19.8 34.3897 19.8 34.3876 19.8 34.3855C19.8 34.3835 19.8 34.3815 19.8 34.3796C19.8 34.3777 19.8 34.3758 19.8 34.374C19.8 34.3721 19.8 34.3704 19.8 34.3687C19.8 34.3669 19.8 34.3653 19.8 34.3637C19.8 34.3621 19.8 34.3605 19.8 34.359C19.8 34.3575 19.8 34.3561 19.8 34.3547C19.8 34.3533 19.8 34.3519 19.8 34.3506C19.8 34.3494 19.8 34.3481 19.8 34.3469H18.2ZM15.9952 50.55C15.5171 49.7678 14.5276 49.4699 13.6971 49.8581L14.3747 51.3076C14.4669 51.2644 14.5769 51.2975 14.63 51.3844L15.9952 50.55ZM26.739 19.5029C26.2074 19.2493 25.5854 19.2717 25.0735 19.563L25.8648 20.9536C25.9217 20.9212 25.9908 20.9187 26.0499 20.9469L26.739 19.5029ZM35.5377 26.9175C36.8742 26.2447 36.854 24.3296 35.5035 23.6852L34.8144 25.1292C34.9645 25.2008 34.9668 25.4136 34.8182 25.4884L35.5377 26.9175Z" fill="#CD9A67"/>
</svg>
