<svg width="64" height="64" viewBox="0 0 64 64" fill="none" xmlns="http://www.w3.org/2000/svg">
<path d="M40 58C40 58 52 58 52 44" stroke="#CD9A67" stroke-width="2" stroke-miterlimit="10" stroke-linecap="round" stroke-linejoin="round"/>
<path d="M40 58C40 56.9391 39.5786 55.9217 38.8284 55.1716C38.0783 54.4214 37.0609 54 36 54H32C30.9391 54 29.9217 54.4214 29.1716 55.1716C28.4214 55.9217 28 56.9391 28 58C28 59.0609 28.4214 60.0783 29.1716 60.8284C29.9217 61.5786 30.9391 62 32 62H36C37.0609 62 38.0783 61.5786 38.8284 60.8284C39.5786 60.0783 40 59.0609 40 58Z" stroke="#CD9A67" stroke-width="2" stroke-miterlimit="10" stroke-linecap="round" stroke-linejoin="round"/>
<path d="M52 26H56.4C57.3548 26 58.2705 26.3793 58.9456 27.0544C59.6207 27.7295 60 28.6452 60 29.6V40.4C60 41.3548 59.6207 42.2705 58.9456 42.9456C58.2705 43.6207 57.3548 44 56.4 44H52H47V26H52ZM52 26V22C52 10.955 44.045 2 33 2H31C19.953 2 12 10.955 12 22V26M12 26H7.6C6.64522 26 5.72955 26.3793 5.05442 27.0544C4.37928 27.7295 4 28.6452 4 29.6V40.4C4 41.3548 4.37928 42.2705 5.05442 42.9456C5.72955 43.6207 6.64522 44 7.6 44H10H17V26H12Z" stroke="black" stroke-width="2" stroke-miterlimit="10" stroke-linecap="round" stroke-linejoin="round"/>
</svg>
