<?xml version="1.0" encoding="utf-8"?>
<!-- Generator: Adobe Illustrator 18.0.0, SVG Export Plug-In . SVG Version: 6.00 Build 0)  -->
<!DOCTYPE svg PUBLIC "-//W3C//DTD SVG 1.1//EN" "http://www.w3.org/Graphics/SVG/1.1/DTD/svg11.dtd">
<svg version="1.1" id="Layer_1" xmlns="http://www.w3.org/2000/svg" xmlns:xlink="http://www.w3.org/1999/xlink" x="0px" y="0px"
	 viewBox="0 0 64 64" enable-background="new 0 0 64 64" xml:space="preserve">
<g>
	<path style="fill:#fff;" d="M53.6,51.3c-0.6-1.4-2.2-2.1-3.7-1.5l-9.1,4c0,0,0-0.1,0-0.1c0-1.4-1.2-2.6-2.6-2.6v0h0c0,0,0,0,0,0v0h-6.5l-5-2.3
		c-1.1-0.5-2.2-0.8-3.4-0.8h-3.6v-1.8H8.8v1.5h9.4v13.1h-7.4v1.5h8.9v-1.8h2.6l9.1,3c0.6,0.2,1.3,0.3,2,0.3c1,0,2-0.2,2.9-0.7
		L52.1,55C53.5,54.4,54.2,52.8,53.6,51.3z M51.5,53.7L35.5,62c-1.1,0.6-2.5,0.7-3.7,0.3l-9.2-3.1l-3,0v-9.6h3.6c1,0,1.9,0.2,2.8,0.6
		l5.2,2.4h6.9c0.6,0,1.1,0.5,1.1,1.2c0,0.6-0.5,1.2-1.2,1.2h-8l-0.1,0c-0.8,0.1-2.3,0.8-2.3,2.4h1.5c0-0.7,0.8-0.9,1-0.9h8v0
		c0.4,0,0.8-0.1,1.2-0.3l0,0l11.1-4.9c0.7-0.3,1.5,0,1.7,0.7C52.5,52.6,52.2,53.3,51.5,53.7z"/>
	<rect style="fill:#fff;" x="12" y="57.9" width="1.5" height="1.5"/>
	<rect style="fill:#fff;" x="15.1" y="57.9" width="1.5" height="1.5"/>
	<path style="fill:#fff;" d="M35.8,22.4l3.9-2.1l3.9,2.1l-0.8-4.3l3.2-3l-4.4-0.6l-1.9-4l-1.9,4L33.4,15l3.2,3L35.8,22.4z M38.7,15.8l0.9-1.9l0.9,1.9
		l2.1,0.3l-1.5,1.5l0.4,2.1l-1.9-1l-1.9,1l0.4-2.1l-1.5-1.5L38.7,15.8z"/>
	<rect style="fill:#fff;" x="38.9" y="0" width="1.5" height="3.7"/>
	<rect style="fill:#fff;" x="46.1" y="1.6" transform="matrix(0.9063 0.4226 -0.4226 0.9063 5.8317 -19.4535)" width="1.5" height="3.7"/>
	<rect style="fill:#fff;" x="30.7" y="2.7" transform="matrix(0.4226 0.9063 -0.9063 0.4226 21.9038 -27.5259)" width="3.7" height="1.5"/>
	<path style="fill:#fff;" d="M49.4,21c3.1,0,5.8-2.9,5.8-6.2c0-2.6-2.2-4.8-5.1-5.1V7.2H29.3v2.5c-2.9,0.3-5.1,2.5-5.1,5.1c0,3.3,2.7,6.2,5.8,6.2
		c1.4,3.7,4.8,6.3,8.9,6.6v11H31v3.3h-3.3v4.8h23.9v-4.8h-3.3v-3.3h-7.9v-11C44.5,27.3,47.9,24.6,49.4,21z M50,11.1
		c2.1,0.3,3.7,1.8,3.7,3.6c0,2.3-1.8,4.4-3.9,4.7C50.2,17.7,50.1,14.5,50,11.1z M25.6,14.8c0-1.8,1.6-3.3,3.7-3.6
		c-0.1,3.5-0.1,7,0.2,8.3C27.4,19.1,25.6,17.1,25.6,14.8z M50.2,43.4v1.8h-21v-1.8H50.2z M46.8,40.1v1.8H32.5v-1.8H46.8z M39.7,26.2
		c-4.9,0-8.9-4-8.9-8.9V8.7h17.8v8.6C48.6,22.2,44.6,26.2,39.7,26.2z"/>
</g>
</svg>
