<?xml version="1.0" encoding="utf-8"?>
<!-- Generator: Adobe Illustrator 18.0.0, SVG Export Plug-In . SVG Version: 6.00 Build 0)  -->
<!DOCTYPE svg PUBLIC "-//W3C//DTD SVG 1.1//EN" "http://www.w3.org/Graphics/SVG/1.1/DTD/svg11.dtd">
<svg version="1.1" id="Layer_1" xmlns="http://www.w3.org/2000/svg" xmlns:xlink="http://www.w3.org/1999/xlink" x="0px" y="0px"
	 viewBox="0 0 64 64" enable-background="new 0 0 64 64" xml:space="preserve">
<g>
	<path style="fill:#fff;" d="M45.3,20.4c2,0,3.6-1.6,3.6-3.6c0-2-1.6-3.6-3.6-3.6c-2,0-3.6,1.6-3.6,3.6C41.7,18.8,43.3,20.4,45.3,20.4z M45.3,14.7
		c1.2,0,2.1,0.9,2.1,2.1s-0.9,2.1-2.1,2.1c-1.2,0-2.1-0.9-2.1-2.1S44.1,14.7,45.3,14.7z"/>
	<path style="fill:#fff;" d="M64,30.9c0-2.5-2-4.5-4.5-4.5h-0.4l-1.9,3.5H57l-1.9-3.5h-0.4c-0.5,0-0.9,0.1-1.3,0.2V26c0-2.9-2.3-5.2-5.2-5.2h-0.4
		l-2.2,4.2h-0.4l-2.2-4.2h-0.4c-0.5,0-0.9,0.1-1.4,0.2c-0.5-2.8-2.9-4.9-5.7-4.9h-0.4l-2.5,4.7h-0.6l-2.5-4.7h-0.4
		c-2.9,0-5.3,2.1-5.7,4.9c-0.4-0.1-0.9-0.2-1.4-0.2h-0.4l-2.2,4.2h-0.4l-2.2-4.2h-0.4c-2.9,0-5.2,2.3-5.2,5.2v0.6
		c-0.4-0.1-0.9-0.2-1.3-0.2H8.9L7,29.9H6.8l-1.9-3.5H4.5c-2.5,0-4.5,2-4.5,4.5v10.7h2.1L1.7,56.5h4.2l1-8.6l1,8.6h4.2l-0.6-15.7
		L10,40.9L10.6,55H9.2L7.6,42L6.9,42L6.1,42L4.5,55H3.2l0.6-20.4l-1.5,0l-0.2,5.5H1.5v-9.2c0-1.5,1.1-2.8,2.6-3l1.9,3.5h1.9l1.9-3.5
		c0.3,0,0.6,0.1,0.9,0.3v10.5h2.5l-0.5,17.8h4.7l1.4-11.3l1.4,11.3h4.7l-0.8-18.6l-1.5,0.1L23.3,55h-1.9l-1.9-15.7l-0.8,0.1L18,39.3
		L16.1,55h-1.9l0.7-24.5l-1.5,0l-0.2,6.7h-1.1V26c0-1.9,1.5-3.5,3.3-3.7l2.2,4.1h2.2l2.2-4.1c0.3,0,0.6,0.1,0.8,0.2v13.7h2.9
		l-0.6,20.3h5.2L32,42.9l1.7,13.6h5.2l-0.6-20.3h2.9V22.5c0.3-0.1,0.6-0.2,0.9-0.2l2.2,4.1h2.2l2.2-4.1c1.9,0.2,3.3,1.8,3.3,3.7
		v11.2h-1.1l-0.2-6.7l-1.5,0L49.9,55h-1.9L46,39.3l-0.8,0.1l-0.8-0.1L42.6,55h-1.9l0.7-17.1l-1.5-0.1l-0.8,18.6h4.7l1.4-11.3
		l1.4,11.3h4.7l-0.5-17.8h2.5V28.2c0.3-0.1,0.6-0.2,0.9-0.3l1.9,3.5h1.9l1.9-3.5c1.5,0.2,2.6,1.5,2.6,3v9.2h-0.7l-0.2-5.5l-1.5,0
		L60.8,55h-1.4L57.9,42L57.1,42L56.4,42L54.8,55h-1.4L54,40.9l-1.5-0.1l-0.6,15.7h4.2l1-8.6l1,8.6h4.2l-0.4-14.9H64V30.9z
		 M39.6,34.7h-1.4L38,27l-1.5,0L37.3,55h-2.4l-2.2-18L32,37.1L31.2,37L29,55h-2.4l0.8-27.9L26,27l-0.2,7.7h-1.4V21.9
		c0-2.3,1.7-4.1,3.9-4.3l2.5,4.7h2.3l2.5-4.7c2.2,0.2,3.9,2.1,3.9,4.3V34.7z"/>
	<path style="fill:#fff;" d="M57.1,26.3c1.7,0,3.1-1.4,3.1-3.1c0-1.7-1.4-3.1-3.1-3.1c-1.7,0-3.1,1.4-3.1,3.1C54,24.9,55.4,26.3,57.1,26.3z M57.1,21.6
		c0.9,0,1.6,0.7,1.6,1.6c0,0.9-0.7,1.6-1.6,1.6s-1.6-0.7-1.6-1.6C55.5,22.3,56.2,21.6,57.1,21.6z"/>
	<path style="fill:#fff;" d="M18.7,20.4c2,0,3.6-1.6,3.6-3.6c0-2-1.6-3.6-3.6-3.6c-2,0-3.6,1.6-3.6,3.6C15.2,18.8,16.8,20.4,18.7,20.4z M18.7,14.7
		c1.2,0,2.1,0.9,2.1,2.1s-0.9,2.1-2.1,2.1c-1.2,0-2.1-0.9-2.1-2.1S17.6,14.7,18.7,14.7z"/>
	<path style="fill:#fff;" d="M6.9,26.3c1.7,0,3.1-1.4,3.1-3.1c0-1.7-1.4-3.1-3.1-3.1c-1.7,0-3.1,1.4-3.1,3.1C3.8,24.9,5.2,26.3,6.9,26.3z M6.9,21.6
		c0.9,0,1.6,0.7,1.6,1.6c0,0.9-0.7,1.6-1.6,1.6s-1.6-0.7-1.6-1.6C5.3,22.3,6,21.6,6.9,21.6z"/>
	<path style="fill:#fff;" d="M32,15.4c2.2,0,4-1.8,4-4c0-2.2-1.8-4-4-4c-2.2,0-4,1.8-4,4C28,13.7,29.8,15.4,32,15.4z M32,9c1.4,0,2.5,1.1,2.5,2.5
		c0,1.4-1.1,2.5-2.5,2.5c-1.4,0-2.5-1.1-2.5-2.5C29.5,10.1,30.6,9,32,9z"/>
</g>
</svg>
