<?xml version="1.0" encoding="utf-8"?>
<!-- Generator: Adobe Illustrator 18.0.0, SVG Export Plug-In . SVG Version: 6.00 Build 0)  -->
<!DOCTYPE svg PUBLIC "-//W3C//DTD SVG 1.1//EN" "http://www.w3.org/Graphics/SVG/1.1/DTD/svg11.dtd">
<svg version="1.1" id="Layer_1" xmlns="http://www.w3.org/2000/svg" xmlns:xlink="http://www.w3.org/1999/xlink" x="0px" y="0px"
	 viewBox="0 0 64 64" enable-background="new 0 0 64 64" xml:space="preserve">
<g>
	<path style="fill:#fff;" d="M23.3,25.2l9.3,5l-1.9-10.4l7.6-7.3l-10.5-1.5l-4.6-9.5l-4.6,9.5L8.2,12.4l7.6,7.3L14,30.2L23.3,25.2z M11.4,13.4l8.3-1.1
		l3.7-7.5l3.7,7.5l8.3,1.1l-6,5.8l1.5,8.2l-7.4-3.9l-7.4,3.9l1.5-8.2L11.4,13.4z"/>
	<polygon style="fill:#fff;" points="36,4.8 38.4,9.8 44,10.6 40,14.5 40.9,20 36.3,17.6 35.6,18.9 42.9,22.8 41.5,15 47.2,9.6 39.4,8.5 36,1.4
		32.4,8.8 33.7,9.5 	"/>
	<polygon style="fill:#fff;" points="55.8,6.7 49.5,5.8 46.7,0 43.7,6.1 45,6.8 46.7,3.3 48.5,7.1 52.6,7.7 49.6,10.6 50.4,14.7 47,12.9 46.3,14.2
		52.3,17.4 51.2,11.1 	"/>
	<path style="fill:#fff;" d="M37.5,40.4c0-1.5-1.2-2.6-2.6-2.6c-0.5,0-0.9,0.1-1.3,0.3c-0.3-1.2-1.3-2-2.6-2c-0.6,0-1.1,0.2-1.5,0.5
		c-0.5-0.8-1.3-1.3-2.3-1.3c-0.4,0-0.8,0.1-1.2,0.3v-3.3c0-1.5-1.2-2.6-2.6-2.6c-1.5,0-2.6,1.2-2.6,2.6v9.8
		c-0.4-0.2-0.8-0.3-1.2-0.3c-1.5,0-2.6,1.2-2.6,2.6v0.1v5v0.3h0c0.1,1.8,1,3.5,2.5,4.6c0.8,0.6,1.3,1.5,1.3,2.5v1
		c-0.1,0-0.1,0.1-0.2,0.1c-0.4,0.4-0.6,1-0.6,1.7c0.1,1.4,0.1,2.9,0.2,4.3l1.5,0c0-1.4-0.1-2.9-0.2-4.4c0-0.2,0.1-0.5,0.2-0.6
		c0.1-0.1,0.2-0.1,0.3-0.1h11.6c0.1,0,0.2,0,0.3,0.1c0.1,0.1,0.2,0.4,0.2,0.6c0,0.6-0.1,1-0.1,1.4c-0.1,0.9-0.1,1.5-0.1,3l1.5,0
		c0-1.5,0-2,0.1-2.9c0-0.4,0.1-0.8,0.1-1.4c0-0.6-0.1-1.1-0.5-1.5l0,0c0-0.4,0.1-1.5,0.5-2.1c0.1-0.2,0.2-0.3,0.3-0.5
		c0.5-0.9,1.1-1.8,1.5-3.8c0.5-2.1,0.2-6.4,0.1-6.9V40.4z M35.9,51.5c-0.4,1.7-0.9,2.5-1.4,3.3c-0.1,0.2-0.2,0.4-0.3,0.6
		c-0.4,0.6-0.5,1.5-0.6,2.1c0,0-0.1,0-0.1,0H22.2v-0.5c0-1.5-0.7-2.9-1.9-3.7c-1.2-0.8-1.9-2.2-1.9-3.6v-5v-0.1
		c0-0.7,0.5-1.2,1.2-1.2c0.7,0,1.2,0.5,1.2,1.2v3h1.5v-3c0-0.1,0-0.3,0-0.4h0V32.3c0-0.7,0.5-1.2,1.2-1.2c0.7,0,1.2,0.5,1.2,1.2v5.6
		v4.3V44H26v-1.8v-4.3c0-0.7,0.5-1.2,1.2-1.2c0.7,0,1.2,0.5,1.2,1.2v0.8v3.5v1.6h1.5v-1.6v-3.5c0-0.7,0.5-1.2,1.2-1.2
		c0.7,0,1.2,0.5,1.2,1.2v1.7v3.3V45h1.5v-1.2v-3.3c0-0.7,0.5-1.2,1.2-1.2c0.7,0,1.2,0.5,1.2,1.2V45c0,0,0,0.1,0,0.1
		C36.1,45.8,36.3,49.7,35.9,51.5z"/>
</g>
</svg>
