<?xml version="1.0" encoding="utf-8"?>
<!-- Generator: Adobe Illustrator 18.0.0, SVG Export Plug-In . SVG Version: 6.00 Build 0)  -->
<!DOCTYPE svg PUBLIC "-//W3C//DTD SVG 1.1//EN" "http://www.w3.org/Graphics/SVG/1.1/DTD/svg11.dtd">
<svg version="1.1" id="Layer_1" xmlns="http://www.w3.org/2000/svg" xmlns:xlink="http://www.w3.org/1999/xlink" x="0px" y="0px"
	 viewBox="0 0 64 64" enable-background="new 0 0 64 64" xml:space="preserve">
<g>
	<path style="fill:#fff;" d="M31.4,39.2v8.4H39c0.7,0,1.3-0.4,1.6-1.1c0.3-0.6,0.1-1.4-0.4-1.9L35,39.2H31.4z M39.3,46c0,0.1-0.1,0.2-0.2,0.2h-6.2v-5.5
		h1.6l4.8,5C39.3,45.8,39.3,45.9,39.3,46z"/>
	<path style="fill:#fff;" d="M42.3,1.8c-12,0-21.7,9.8-21.7,21.7c0,3.2,0.7,6.5,2.1,9.4H2.7c-1.5,0-2.7,1.2-2.7,2.7v19.8c0,1.5,1.2,2.7,2.7,2.7h2.5
		c0.4,2.2,2.3,4,4.6,4s4.3-1.7,4.6-4h19c0.4,2.2,2.3,4,4.6,4c2.3,0,4.3-1.7,4.6-4h5.2v-8.4c0-1.2-0.5-2.3-1.3-3.1L45,45.1
		c10.7-1.4,19-10.6,19-21.5C64,11.6,54.2,1.8,42.3,1.8z M9.8,60.7c-1.8,0-3.2-1.5-3.2-3.2c0-1.8,1.5-3.2,3.2-3.2
		c1.8,0,3.2,1.5,3.2,3.2C13,59.2,11.6,60.7,9.8,60.7z M38,60.7c-1.8,0-3.2-1.5-3.2-3.2c0-1.8,1.5-3.2,3.2-3.2c1.8,0,3.2,1.5,3.2,3.2
		C41.3,59.2,39.8,60.7,38,60.7z M46.4,49.8H28.2v1.5h18.2v5.5h-3.7c-0.4-2.2-2.3-4-4.6-4c-2.3,0-4.3,1.7-4.6,4h-19
		c-0.4-2.2-2.3-4-4.6-4s-4.3,1.7-4.6,4H2.7c-0.7,0-1.3-0.6-1.3-1.3v-4.2h24.7v-1.5H1.5V35.7c0-0.7,0.6-1.3,1.3-1.3h27.4
		c0.7,0,1.3,0.6,1.3,1.3v2.2h3.7c0.5,0,1,0.2,1.3,0.6l9.1,9.3C46.1,48.3,46.4,49,46.4,49.8z M43.7,43.8l-6.3-6.4
		c-0.6-0.6-1.5-1-2.4-1h-2.2v-0.7c0-1.5-1.2-2.7-2.7-2.7h-5.8c-1.5-2.9-2.3-6.1-2.3-9.4c0-11.2,9.1-20.3,20.3-20.3
		c11.2,0,20.3,9.1,20.3,20.3C62.5,34.2,54.3,43,43.7,43.8z"/>
	<path style="fill:#fff;" d="M43,20.7V6.2h-1.5v14.5c-1.3,0.3-2.2,1.5-2.2,2.8c0,1.6,1.3,2.9,2.9,2.9c1.3,0,2.5-0.9,2.8-2.2h7.6v-1.5h-7.6
		C44.8,21.8,44,21,43,20.7z M42.3,25c-0.8,0-1.5-0.7-1.5-1.5c0-0.8,0.7-1.5,1.5-1.5c0.8,0,1.5,0.7,1.5,1.5
		C43.7,24.4,43.1,25,42.3,25z"/>
</g>
</svg>
